<svg width="313" height="152" viewBox="0 0 313 152" fill="none" xmlns="http://www.w3.org/2000/svg">
<rect width="313" height="152" rx="9" fill="#DB544D"/>
<mask id="mask0" style="mask-type:alpha" maskUnits="userSpaceOnUse" x="0" y="0" width="313" height="152">
<rect width="313" height="152" rx="9" fill="#9292FF"/>
</mask>
<g mask="url(#mask0)">
<path fill-rule="evenodd" clip-rule="evenodd" d="M97.8876 34.2568C106.006 53.5988 101.316 75.4542 95.6848 95.6733C90.0194 116.015 83.5238 138.435 65.7489 149.654C48.4384 160.58 26.4458 152.504 6.01823 152.268C-13.2031 152.047 -32.682 156.506 -50.1016 148.32C-69.4025 139.25 -88.6595 125.263 -95.0148 104.79C-101.294 84.5619 -87.6 64.6196 -82.464 44.0669C-77.0865 22.5484 -82.2777 -5.44771 -64.2713 -18.2345C-46.196 -31.0703 -21.6294 -17.114 0.362332 -14.7502C18.5679 -12.7934 36.7881 -13.8438 53.1711 -5.61132C71.4307 3.56426 89.9418 15.3267 97.8876 34.2568Z" fill="#9F9FE8"/>
<path fill-rule="evenodd" clip-rule="evenodd" d="M210.335 34.2471C215.059 13.8089 231.643 -1.17813 248.034 -14.2878C264.525 -27.4771 282.903 -41.8665 303.883 -40.5743C324.315 -39.3159 337.433 -19.9046 353.867 -7.7692C369.331 3.64959 387.74 11.4222 397.085 28.2487C407.439 46.8923 414.882 69.4987 408.066 89.8235C401.332 109.905 378.563 118.075 362.378 131.745C345.434 146.057 333.275 171.804 311.191 171.648C289.022 171.492 277.253 145.805 260.795 131.029C247.17 118.796 231.775 108.994 223.299 92.7362C213.851 74.6158 205.712 54.2498 210.335 34.2471Z" fill="#C44B45"/>
<path fill-rule="evenodd" clip-rule="evenodd" d="M-49.0324 91.362C-54.0921 68.8076 -44.77 46.0085 -34.7446 25.1666C-24.6582 4.19807 -13.2687 -18.8636 8.1864 -27.59C29.0808 -36.0885 51.3728 -23.0671 73.4863 -18.8545C94.294 -14.8907 116.288 -15.9539 133.598 -3.69924C152.778 9.87879 170.957 28.7815 173.885 52.2215C176.778 75.3805 158.059 94.3602 148.506 115.66C138.504 137.961 138.712 169.335 116.702 179.718C94.608 190.14 70.6628 170.241 47.265 163.416C27.8954 157.767 7.92732 155.376 -8.24936 143.272C-26.2791 129.781 -44.0804 113.436 -49.0324 91.362Z" fill="#C44B45"/>
<path fill-rule="evenodd" clip-rule="evenodd" d="M-140.717 91.3621C-145.776 68.8077 -136.454 46.0086 -126.429 25.1667C-116.343 4.19819 -104.953 -18.8634 -83.4979 -27.5899C-62.6035 -36.0884 -40.3115 -23.067 -18.198 -18.8544C2.60969 -14.8905 24.6034 -15.9537 41.9137 -3.69912C61.0933 9.87891 79.2729 28.7816 82.2006 52.2216C85.0933 75.3806 66.3751 94.3604 56.822 115.66C46.82 137.961 47.0275 169.335 25.0177 179.718C2.92363 190.14 -21.0215 170.241 -44.4193 163.417C-63.7889 157.767 -83.757 155.377 -99.9337 143.272C-117.963 129.782 -135.765 113.436 -140.717 91.3621Z" fill="#D24D46"/>
</g>
</svg>
