<svg width="68" height="75" viewBox="0 0 68 75" fill="none" xmlns="http://www.w3.org/2000/svg">
<path d="M47.7747 14.8809C47.7747 14.8809 53.4824 9.7958 59.4449 11.6569C72.7628 15.8137 66.3377 39.758 59.5213 42.6276C52.9837 45.3799 48.451 31.4675 48.451 31.4675L47.7747 14.8809Z" fill="#B3C2D1"/>
<path d="M57.8562 43.0584C57.2229 43.0584 56.5899 42.9146 55.9609 42.6271C51.4288 40.556 48.4593 31.5781 48.4297 31.4877L48.5709 31.4418C48.6002 31.5316 51.5499 40.4481 56.0229 42.4923C57.191 43.0263 58.3749 43.0475 59.5419 42.5562C61.5046 41.7299 63.4999 39.1245 65.0161 35.4084C66.5615 31.6208 67.3434 27.2752 67.1615 23.4856C66.8671 17.3572 64.1363 13.1806 59.4722 11.7249C53.6178 9.89774 47.9302 14.8833 47.8734 14.9338L47.7747 14.8227C47.832 14.7716 53.5823 9.73103 59.5164 11.5829C64.2445 13.0589 67.0123 17.2835 67.3096 23.4787C67.6889 31.3778 63.8698 40.8955 59.5996 42.6931C59.0211 42.9364 58.4386 43.0584 57.8562 43.0584Z" fill="#AB5C43"/>
<path d="M66.5586 21.2584C65.5273 17.7859 63.3329 14.9768 59.5212 13.7872C58.599 13.4991 57.6822 13.3774 56.7924 13.3774C54.5368 13.3774 52.4502 14.159 50.8609 14.9974C50.6305 14.6041 50.3837 14.2178 50.1223 13.8405C51.7271 12.8606 54.1601 11.7244 56.8114 11.7244C57.6518 11.7244 58.5152 11.8389 59.38 12.1086C64.1486 13.5972 65.9618 17.5529 66.5586 21.2584Z" fill="#D9E1E8"/>
<path d="M57.8439 43.4675C57.1553 43.4675 56.4663 43.3111 55.7826 42.9987C51.092 40.855 48.1595 31.9949 48.037 31.6188C47.9555 31.3694 48.0921 31.1011 48.3414 31.0199C48.5908 30.9384 48.8591 31.0747 48.9406 31.3244C48.9693 31.4125 51.8662 40.1649 56.1785 42.1347C57.2551 42.6265 58.3004 42.646 59.3747 42.1935C61.2125 41.4197 63.1786 38.8292 64.6334 35.2637C66.1573 31.5287 66.9286 27.245 66.7493 23.5117C66.5473 19.304 65.0979 13.9114 59.3409 12.1143C53.7106 10.3576 48.1831 15.1908 48.1282 15.2402C47.932 15.4143 47.6319 15.3968 47.4574 15.2008C47.2829 15.0049 47.3004 14.7047 47.4961 14.5303C47.7374 14.3154 53.4756 9.28766 59.6241 11.2073C64.5249 12.7366 67.3926 17.0903 67.6985 23.466C68.0844 31.5069 64.1442 41.2168 59.7434 43.0695C59.113 43.3349 58.4786 43.4675 57.8439 43.4675Z" fill="#AB5C43"/>
<path d="M48.8 19.8323C48.8 19.8323 51.2622 16.948 56.9987 16.5121C62.7354 16.0766 64.6527 21.3335 63.3454 28.9058C62.0379 36.478 59.3957 40.4004 56.4813 39.7273C53.9414 39.1405 49.5627 34.19 49.5263 27.1279C49.4973 21.4922 48.8 19.8323 48.8 19.8323Z" fill="#FF5A99"/>
<path d="M63.254 24.8607C62.4486 22.0986 60.6096 20.4433 57.641 20.4433C57.4301 20.4433 57.2138 20.4516 56.9914 20.4686C55.4761 20.5836 54.1889 20.8694 53.1157 21.2275C52.9473 20.1541 52.6813 19.1036 52.3218 18.085C53.5217 17.5765 55.0801 17.1344 57.0278 16.9866C57.2361 16.9708 57.4393 16.9628 57.6378 16.9628C59.2441 16.9628 60.5267 17.479 61.4567 18.5016C62.6693 19.8353 63.279 22.0324 63.254 24.8607Z" fill="#B23F8D"/>
<path d="M49.3016 19.9576C49.5053 20.6689 49.94 22.6998 49.9627 27.1247C49.9782 30.1533 50.8528 33.1624 52.4255 35.597C53.9457 37.9513 55.597 39.0434 56.5493 39.2635C57.2133 39.4164 57.8695 39.2819 58.5008 38.8627C60.3702 37.6205 61.9512 33.9615 62.8384 28.8239C63.659 24.0717 63.1569 20.4055 61.4249 18.5002C60.3802 17.351 58.8899 16.8417 56.9961 16.9852C52.383 17.3355 49.9515 19.3372 49.3016 19.9576ZM57.0882 40.2767C56.8394 40.2767 56.5883 40.2477 56.3356 40.1892C54.8306 39.8417 53.0263 38.2796 51.6269 36.1127C50.4459 34.2837 49.0336 31.2408 49.0124 27.1295C48.9845 21.7208 48.3283 20.0284 48.3217 20.0118L48.2141 19.7449L48.3998 19.5226C48.5056 19.3989 51.0579 16.4833 56.9241 16.0374C59.1257 15.8704 60.876 16.4839 62.1282 17.8609C64.0894 20.0184 64.659 23.8653 63.775 28.9857C62.8298 34.4588 61.1435 38.2477 59.0264 39.6543C58.4026 40.0686 57.7533 40.2767 57.0882 40.2767Z" fill="#AB5C43"/>
<path d="M29.6042 72.9504C35.7389 71.3085 42.519 71.8402 46.7797 72.3716C48.9564 72.6434 50.4754 72.9148 50.9153 72.8967C55.0896 72.724 56.945 64.7549 53.5735 61.1889C51.8929 59.4113 45.3206 58.4925 41.2516 64.6726L29.6042 72.9504Z" fill="#C2C6D2"/>
<path d="M29.6427 73.0239L29.6042 72.8804C37.0296 70.8931 45.4965 72.0976 49.1125 72.6121C50.0209 72.7412 50.6771 72.8342 50.9314 72.8242C52.4668 72.7607 53.8042 71.6004 54.6007 69.6412C55.6282 67.1124 55.5935 63.4152 53.5387 61.2417C52.8294 60.4916 51.0312 59.7766 48.7561 59.9752C47.0505 60.1249 43.8185 60.9398 41.3331 64.7151L41.2088 64.6336C43.729 60.8061 47.0109 59.9795 48.7429 59.8274C51.0671 59.6228 52.9138 60.3648 53.6466 61.1398C55.7444 63.3587 55.7837 67.1242 54.7381 69.6968C53.9189 71.7126 52.5336 72.9065 50.9374 72.9725C50.6691 72.9843 50.0421 72.8942 49.0915 72.759C45.4847 72.246 37.0388 71.0446 29.6427 73.0239Z" fill="#AB5C43"/>
<path d="M29.4934 73.4231C29.2833 73.4231 29.0914 73.2831 29.0345 73.0708C28.9668 72.8171 29.1172 72.5566 29.3708 72.4889C36.8751 70.4806 45.3991 71.6929 49.0392 72.2111C49.8592 72.3276 50.5654 72.4301 50.7849 72.4194C52.1567 72.3626 53.3647 71.2935 54.0993 69.4861C55.0789 67.0758 55.0559 63.5634 53.1174 61.513C52.4724 60.8309 50.8021 60.1827 48.6613 60.3704C47.028 60.5139 43.9308 61.2969 41.5378 64.9315C41.3937 65.1508 41.0988 65.211 40.8798 65.067C40.6606 64.9227 40.5998 64.628 40.7441 64.4088C43.357 60.4404 46.7738 59.5822 48.5781 59.4238C50.7166 59.2364 52.8181 59.8135 53.808 60.8602C56.0223 63.2022 56.0737 67.1521 54.9796 69.8439C54.0987 72.0114 52.5843 73.2963 50.8242 73.3689C50.5209 73.3801 49.9123 73.2952 48.9052 73.152C45.3228 72.6424 36.9336 71.449 29.6164 73.4068C29.5754 73.418 29.5341 73.4231 29.4934 73.4231Z" fill="#AB5C43"/>
<path d="M42.0596 42.4958C50.2863 42.0614 52.8593 37.4492 54.6406 37.1247C56.8965 36.7135 59.9868 39.021 59.4439 42.3871C58.901 45.7534 53.7884 52.8611 44.7284 52.5945L42.0596 42.4958Z" fill="#B3C2D1"/>
<path d="M47.2288 52.0078C47.1382 51.3017 47.036 50.597 46.9126 49.8951L46.8977 49.8073C53.235 49.2647 57.3508 45.0574 58.9846 41.8032C58.9774 41.9714 58.9599 42.1458 58.9307 42.3266C58.4954 45.0264 54.5655 51.0374 47.2288 52.0078Z" fill="#7D87B4"/>
<path d="M45.2623 53.0771C45.093 53.0771 44.9226 53.0745 44.7499 53.0693C44.4876 53.0616 44.281 52.8426 44.2887 52.5804C44.2965 52.3181 44.5143 52.111 44.778 52.1196C53.743 52.3775 58.5271 45.3068 59.0103 42.3115C59.3064 40.4768 58.3991 39.2703 57.8318 38.7148C56.9524 37.8528 55.747 37.4112 54.7611 37.592C54.3487 37.6672 53.774 38.1225 53.0463 38.6996C51.1792 40.1796 48.0542 42.657 42.1204 42.97C41.8595 42.9847 41.6346 42.7827 41.6208 42.5207C41.6068 42.2584 41.8079 42.0349 42.0702 42.0211C47.7013 41.7239 50.5626 39.4556 52.4561 37.9547C53.3203 37.2697 53.9447 36.7748 54.5909 36.6569C55.8901 36.4196 57.3874 36.9487 58.497 38.0359C59.6855 39.2005 60.2146 40.814 59.9486 42.4627C59.6705 44.1866 58.2267 46.9418 55.6282 49.2109C53.5869 50.9933 50.1537 53.0768 45.2623 53.0771Z" fill="#AB5C43"/>
<path d="M51.4885 42.9866C51.4101 42.8672 51.3562 42.741 51.3097 42.6119C51.2638 42.4828 51.2282 42.351 51.2021 42.2173C51.1757 42.0836 51.1619 41.9485 51.1499 41.8125C51.1456 41.677 51.1436 41.5405 51.1493 41.4044C51.172 40.8598 51.2712 40.3104 51.4632 39.7881C51.65 39.2656 51.9143 38.7598 52.2669 38.3248C52.4285 38.0935 52.633 37.9027 52.8284 37.703C52.9223 37.5982 53.0388 37.5213 53.1449 37.4318C53.2531 37.3449 53.3639 37.2614 53.4732 37.1767C53.6804 37.0163 53.9779 37.0539 54.1383 37.2608C54.2944 37.4619 54.2628 37.7492 54.0709 37.9124L54.0307 37.9463C53.9397 38.0232 53.8505 38.1015 53.7581 38.1764C53.6683 38.2533 53.569 38.321 53.4898 38.4085C53.3243 38.5758 53.1467 38.7331 53.0038 38.9196C52.9312 39.0114 52.8454 39.0946 52.7825 39.1936L52.5808 39.4828C52.5114 39.5784 52.4637 39.6866 52.4032 39.7881L52.3143 39.9419L52.2405 40.1035C52.0388 40.5322 51.8881 40.9935 51.8061 41.4736C51.7246 41.9551 51.6669 42.4391 51.5656 42.9691L51.5651 42.9714C51.5608 42.9944 51.5387 43.0093 51.5157 43.005C51.5042 43.0027 51.4945 42.9958 51.4885 42.9866Z" fill="#AB5C43"/>
<path d="M47.0484 62.671L31.6069 71.8346L30.0781 72.2954L25.7459 73.601L15.094 67.5558L19.413 45.5033L19.9989 44.211L22.1595 39.4392L22.4114 39.4203L42.6103 37.8832C42.6103 37.8832 43.7959 40.3612 44.915 43.5008C45.0588 43.9045 45.1953 44.3143 45.3236 44.7289C47.4489 51.5606 47.5568 59.585 47.0484 62.671Z" fill="#B3C2D1"/>
<path d="M45.5656 59.0941C45.5656 64.1112 41.9924 68.1782 37.5848 68.1782C33.1772 68.1782 29.6042 64.1112 29.6042 59.0941C29.6042 54.0773 33.1772 50.0103 37.5848 50.0103C41.9924 50.0103 45.5656 54.0773 45.5656 59.0941Z" fill="white"/>
<path d="M23.9782 60.9894C22.1834 58.8744 21.0609 55.8199 21.4875 52.1721C21.497 52.2364 21.5065 52.301 21.5157 52.3652C21.5392 52.55 21.5705 52.7337 21.5992 52.9179C21.6244 53.1021 21.6563 53.2857 21.6924 53.4685L21.7438 53.7431L21.8058 54.0154C22.1363 55.4682 22.6904 56.8718 23.4574 58.1539C24.051 59.149 24.7758 60.0718 25.6249 60.8715C25.5729 60.8706 25.521 60.8703 25.4691 60.8703H25.4392C24.9489 60.8709 24.4605 60.9116 23.9782 60.9894Z" fill="#7D87B4"/>
<path d="M31.156 64.1011C31.041 63.8698 30.9141 63.6431 30.7761 63.4231C31.0154 63.4497 31.2567 63.4629 31.4978 63.4629C31.9698 63.4629 32.4421 63.4116 32.9032 63.3063C33.0791 63.2667 33.2541 63.2188 33.4266 63.1631C32.8079 63.6368 32.0183 63.9628 31.156 64.1011Z" fill="#B2B2D4"/>
<path d="M22.022 49.6074C21.5038 56.5742 25.9763 62.1709 30.5455 62.8995C33.3075 63.3396 36.0403 61.814 36.0397 59.4258C36.0391 57.7369 32.2433 55.3195 31.9317 50.4252L22.022 49.6074Z" fill="#B3C2D1"/>
<path d="M31.4247 62.4998C31.1633 62.4998 30.9016 62.4815 30.6428 62.445C30.3628 62.4057 30.0844 62.3458 29.8095 62.2677L29.6928 62.1564C29.6474 62.1145 29.5992 62.08 29.5525 62.0419C29.4595 61.9635 29.3616 61.8998 29.2638 61.835C28.871 61.5811 28.4558 61.4 28.0331 61.2591C27.8133 61.1871 27.5915 61.1254 27.3683 61.074C27.2346 60.9794 27.1032 60.8809 26.9746 60.7788C25.8932 59.9272 24.981 58.8526 24.27 57.6601C23.8212 56.9097 23.4499 56.1126 23.1589 55.2863C24.7744 58.4678 27.4788 60.6534 30.217 61.0895C30.5369 61.1406 30.8566 61.165 31.1713 61.165C33.0112 61.165 34.6938 60.3243 35.3821 58.9831C35.4171 59.0658 35.4435 59.1456 35.463 59.2219C35.4783 59.2841 35.4872 59.3427 35.4894 59.3966C35.4909 59.4184 35.4894 59.46 35.4886 59.4982C35.4886 59.5364 35.4857 59.5742 35.4829 59.6121C35.4719 59.7639 35.4478 59.9137 35.41 60.0597C35.2613 60.6457 34.8823 61.1679 34.3799 61.559C33.8777 61.9518 33.2628 62.2221 32.6201 62.3667C32.2287 62.4562 31.827 62.4998 31.4247 62.4998Z" fill="#7D87B4"/>
<path d="M31.9983 50.4407C32.3021 51.1296 32.4717 51.7841 32.6904 52.4363C32.9216 53.0811 33.167 53.7201 33.4731 54.3419C33.7767 54.9654 34.1646 55.5499 34.5741 56.1278C34.9821 56.71 35.428 57.2672 35.8412 57.9096C35.892 57.9914 35.9445 58.07 35.9936 58.1553L36.1356 58.4195C36.2289 58.5948 36.3126 58.7971 36.3686 59.0212C36.3961 59.134 36.4157 59.2539 36.4214 59.3802C36.4243 59.4485 36.422 59.497 36.4208 59.5489C36.4205 59.6008 36.4171 59.6528 36.4131 59.7047C36.3984 59.9127 36.3649 60.1202 36.3124 60.3228C36.2079 60.7285 36.0263 61.113 35.7896 61.4513C35.7307 61.5359 35.6662 61.62 35.6091 61.6892C35.533 61.7839 35.4705 61.849 35.3996 61.9253C35.259 62.0731 35.1067 62.2065 34.9488 62.3316C34.3133 62.8277 33.5735 63.1459 32.812 63.3184C32.0519 63.492 31.2611 63.5192 30.4919 63.4108C29.7237 63.302 28.9866 63.0662 28.2977 62.7439C27.607 62.4226 26.96 62.0194 26.3697 61.5509C25.1847 60.6169 24.2019 59.4551 23.4372 58.173C22.6703 56.891 22.1162 55.4873 21.7856 54.0346L21.7237 53.7623L21.6723 53.4877C21.6361 53.3049 21.6043 53.1212 21.579 52.937C21.5503 52.7528 21.5191 52.5692 21.4955 52.3844C21.4697 52.1999 21.4382 52.0154 21.4247 51.8295C21.3865 51.4582 21.3874 51.0834 21.4298 50.7118C21.4557 50.5262 21.4872 50.3408 21.5429 50.1583C21.6034 49.9761 21.6697 49.7954 21.7727 49.6203C21.8221 49.5366 21.9302 49.5084 22.0143 49.5578C22.047 49.577 22.0711 49.6051 22.0855 49.6373L22.0886 49.6439C22.1721 49.8287 22.2186 50.008 22.2597 50.1856C22.3007 50.3629 22.3343 50.5385 22.3532 50.713C22.398 51.0622 22.4183 51.4082 22.4364 51.7557C22.4404 51.9299 22.4528 52.1035 22.4645 52.2774C22.4711 52.364 22.4754 52.4513 22.4855 52.5379L22.5199 52.7967C22.5417 52.9697 22.5727 53.141 22.6063 53.3121L22.6542 53.5689L22.7124 53.8237C23.0212 55.1817 23.5394 56.4922 24.2524 57.685C24.9635 58.8775 25.8756 59.9521 26.9571 60.8037C27.4957 61.2315 28.081 61.5948 28.6974 61.8817C29.3134 62.1701 29.965 62.3769 30.6253 62.4699C31.2832 62.5626 31.9567 62.5391 32.6026 62.3916C33.2453 62.247 33.8602 61.9767 34.3623 61.5839C34.8648 61.1928 35.2438 60.6705 35.3924 60.0846C35.4303 59.9386 35.4544 59.7888 35.4653 59.637C35.4682 59.5991 35.4711 59.5612 35.4711 59.5231C35.4719 59.4849 35.4734 59.4433 35.4719 59.4215C35.4696 59.3676 35.4607 59.309 35.4455 59.2468C35.4137 59.1214 35.3626 58.9862 35.2854 58.8442L35.1718 58.6324C35.1308 58.5613 35.0828 58.4901 35.0389 58.4187C34.6731 57.8477 34.2189 57.2752 33.7988 56.6775C33.3747 56.0801 32.9701 55.456 32.6051 54.8013C32.2399 54.1476 31.9303 53.4501 31.7435 52.7149C31.5538 51.9827 31.499 51.208 31.6821 50.4608C31.7039 50.3715 31.7937 50.3173 31.8826 50.3391C31.9343 50.3517 31.9745 50.3873 31.9945 50.4324L31.9983 50.4407Z" fill="#AB5C43"/>
<path d="M35.9796 59.4301C35.9796 60.1845 35.7076 60.8533 35.2464 61.3997C35.2109 61.3819 35.1764 61.3629 35.1431 61.3437C34.9423 61.2286 34.769 61.0895 34.6229 60.9351C34.1787 60.4599 34.0135 59.8436 34.2594 59.3446C34.5087 58.8385 35.1136 58.5937 35.7738 58.6697C35.9047 58.9406 35.9796 59.1925 35.9796 59.4301Z" fill="white"/>
<path d="M35.4691 58.7323C34.9179 58.7323 34.4548 58.9736 34.2548 59.379C34.0296 59.8361 34.1641 60.4137 34.606 60.8863C34.7518 61.0404 34.9211 61.1733 35.109 61.2811C35.1245 61.29 35.1403 61.2989 35.1567 61.3078C35.6 60.7621 35.8341 60.1147 35.8341 59.4318C35.8341 59.2278 35.775 59.0014 35.6536 58.7412C35.5914 58.7352 35.5297 58.7323 35.4691 58.7323ZM35.1942 61.4941L35.142 61.4677C35.105 61.4493 35.0697 61.4298 35.035 61.41C34.8347 61.2949 34.6539 61.1529 34.4978 60.9879C34.0124 60.4688 33.8686 59.8272 34.1217 59.3136C34.3765 58.7969 35.0003 58.5154 35.7113 58.598L35.7518 58.6026L35.7696 58.6393C35.913 58.936 35.9825 59.1954 35.9825 59.4318C35.9825 60.1696 35.7231 60.8671 35.2321 61.4493L35.1942 61.4941Z" fill="#AB5C43"/>
<path d="M35.2436 61.4546C34.6485 62.147 33.7518 62.6411 32.7277 62.8669C32.3203 62.2764 32.2632 61.5708 32.6411 61.1051C33.0686 60.5789 33.9145 60.5338 34.645 60.9602C34.7495 61.0196 34.8528 61.0911 34.9515 61.1705C35.0287 61.2334 35.1013 61.2999 35.1653 61.3688C35.1937 61.3964 35.2201 61.4248 35.2436 61.4546Z" fill="white"/>
<path d="M33.5665 60.746C33.1855 60.746 32.8446 60.8831 32.6265 61.1517C32.2908 61.5655 32.3172 62.216 32.6888 62.7829C33.6638 62.5586 34.5062 62.0888 35.0729 61.4539C35.0629 61.443 35.0526 61.4326 35.0417 61.422C34.9797 61.3557 34.9102 61.2912 34.8322 61.2275C34.7358 61.1497 34.6359 61.0811 34.5361 61.0246C34.2164 60.8378 33.8781 60.746 33.5665 60.746ZM32.6228 62.9497L32.5944 62.9086C32.1588 62.2774 32.1252 61.5336 32.5112 61.0579C32.9542 60.5127 33.8371 60.4444 34.6101 60.8958C34.7163 60.956 34.8227 61.0289 34.9257 61.1124C35.0095 61.1807 35.0838 61.2496 35.1475 61.3179C35.1754 61.3445 35.2038 61.3755 35.2293 61.4077L35.2678 61.4559L35.2279 61.5024C34.6311 62.197 33.7232 62.7072 32.6716 62.939L32.6228 62.9497Z" fill="#AB5C43"/>
<path d="M32.3069 62.9311C31.7224 63.0177 31.1046 63.0177 30.4869 62.919C30.1414 62.8645 29.7956 62.7813 29.4536 62.6708C29.4797 61.9641 29.8479 61.3725 30.4206 61.2215C31.1712 61.0221 31.9896 61.6551 32.2487 62.6341C32.2748 62.7337 32.2949 62.8324 32.3069 62.9311Z" fill="white"/>
<path d="M29.4645 62.6192C29.7856 62.72 30.111 62.7969 30.4326 62.8476C31.0082 62.9395 31.5878 62.9466 32.1568 62.8697C32.1459 62.8014 32.1307 62.7306 32.1109 62.6545C31.9686 62.1174 31.651 61.6721 31.2395 61.433C30.9551 61.2681 30.6559 61.2201 30.3735 61.295C29.8596 61.4305 29.507 61.9469 29.4645 62.6192ZM31.3723 63.0709C31.0515 63.0709 30.7296 63.0453 30.4094 62.9943C30.0619 62.9392 29.7104 62.8548 29.3646 62.7432L29.3113 62.726L29.3133 62.6697C29.3417 61.9036 29.7428 61.3077 30.3356 61.1516C30.6561 61.0661 30.9947 61.1191 31.3141 61.3048C31.7594 61.5633 32.1023 62.0416 32.2544 62.6167C32.2831 62.7268 32.3029 62.827 32.3146 62.9237L32.3232 62.9954L32.2518 63.006C31.9608 63.0494 31.667 63.0709 31.3723 63.0709Z" fill="#AB5C43"/>
<path d="M35.4599 59.0331C35.0295 59.0371 34.6754 59.2153 34.5279 59.5143C34.3615 59.8526 34.4797 60.3131 34.8298 60.6873C34.9081 60.7702 34.995 60.8463 35.0891 60.9146C35.3913 60.4689 35.5439 59.9728 35.5439 59.4357C35.5439 59.3169 35.5164 59.184 35.4599 59.0331ZM35.2771 61.8686L35.0154 61.7369C34.9735 61.716 34.9333 61.6939 34.8943 61.6715C34.6685 61.5421 34.4651 61.382 34.2889 61.196C33.7159 60.5829 33.5529 59.8136 33.8622 59.1861C34.173 58.5557 34.915 58.2099 35.752 58.3066L35.9551 58.3301L36.0438 58.5141C36.207 58.8521 36.2862 59.1536 36.2862 59.4357C36.2862 60.2443 36.0027 61.0081 35.4659 61.6445L35.2771 61.8686Z" fill="#AB5C43"/>
<path d="M33.5673 61.0453C33.2758 61.0453 33.021 61.1452 32.8606 61.3426C32.64 61.6146 32.6365 62.037 32.8377 62.4438C33.5547 62.2473 34.1834 61.9084 34.654 61.4662L34.6482 61.4614C34.5653 61.3945 34.4789 61.3351 34.3931 61.2866C34.1165 61.1251 33.8276 61.0453 33.5673 61.0453ZM32.4954 63.2866L32.3536 63.0811C31.8426 62.3402 31.8145 61.4536 32.2842 60.8746C32.8204 60.2146 33.8629 60.1174 34.7636 60.643C34.8806 60.7096 35.0003 60.7917 35.1159 60.8849C35.2083 60.9604 35.2904 61.0361 35.3616 61.1119C35.3986 61.148 35.4333 61.1862 35.4651 61.2261L35.6571 61.4665L35.4568 61.6998C34.8181 62.4427 33.8531 62.9873 32.7392 63.2326L32.4954 63.2866Z" fill="#AB5C43"/>
<path d="M29.8042 62.4084C30.0329 62.4712 30.263 62.5209 30.4909 62.557C30.9273 62.6262 31.366 62.6451 31.7999 62.6124C31.6659 62.2104 31.4111 61.8715 31.1023 61.6925C30.9525 61.6055 30.7198 61.516 30.4619 61.5849C30.1374 61.6704 29.8917 61.9874 29.8042 62.4084ZM31.3844 63.3705C31.0478 63.3705 30.7107 63.3438 30.3747 63.2901C30.0125 63.233 29.6458 63.1449 29.2854 63.0284L29.0183 62.9424L29.0286 62.6614C29.0619 61.7616 29.55 61.0572 30.2719 60.867C30.6639 60.7625 31.0917 60.8276 31.4753 61.0506C31.9884 61.3484 32.3812 61.8928 32.5537 62.5435C32.5861 62.6672 32.6082 62.7805 32.6214 62.8907L32.6647 63.2494L32.3075 63.3025C32.0019 63.3478 31.6934 63.3705 31.3844 63.3705Z" fill="#AB5C43"/>
<path d="M6.0303 65.127C6.0303 65.127 9.17828 63.1815 8.91028 60.6037C8.60011 57.621 7.57689 58.258 6.91091 54.1505C6.91091 54.1505 1.30102 57.5883 2.72316 62.1534C3.47511 64.5672 6.0303 65.127 6.0303 65.127Z" fill="#83909D"/>
<path d="M6.92799 54.2752C6.20377 54.7529 1.57855 57.9999 2.86592 62.1324C3.55293 64.3378 5.8055 64.9762 6.08899 65.0482C6.38798 64.8545 9.15548 62.9909 8.90814 60.6125C8.76123 59.1985 8.45392 58.6088 8.09783 57.9262C7.71133 57.1847 7.27404 56.346 6.92799 54.2752ZM6.10219 65.202C6.09674 65.202 6.09157 65.2014 6.08641 65.2003C6.06029 65.1946 3.48022 64.6035 2.72412 62.1766C1.30134 57.6091 6.88725 54.1228 6.94406 54.0881C6.96501 54.0752 6.99112 54.0738 7.01379 54.0841C7.03617 54.0944 7.05223 54.1154 7.05596 54.1395C7.40115 56.2688 7.84131 57.1127 8.22953 57.8576C8.59251 58.5537 8.90613 59.1551 9.05591 60.597C9.32563 63.1912 6.17306 65.1713 6.14121 65.1911C6.12945 65.1983 6.11596 65.202 6.10219 65.202Z" fill="#AB5C43"/>
<path d="M8.34022 59.6027C7.94253 59.0805 7.50495 58.5603 7.00138 57.5098C6.76638 57.0194 6.28691 56.7563 5.80256 56.7563C5.4479 56.7563 5.09096 56.8969 4.82439 57.1925C4.2888 57.7861 3.69871 58.5371 3.22266 59.3884C3.81082 57.3029 5.68176 55.6789 6.64471 54.9567C6.98072 56.6453 7.38186 57.4146 7.74081 58.1029C7.9827 58.5666 8.18958 58.9632 8.34022 59.6027Z" fill="#C1C8CE"/>
<path d="M7.05847 63.7776C6.72075 63.2497 6.59736 62.7039 6.68259 62.1217C6.72964 61.7984 6.64012 61.4936 6.44959 61.2644C7.1985 61.0747 7.89202 60.6076 8.35141 59.8549C8.37149 59.8219 8.39129 59.7887 8.4108 59.7554C8.46388 60.0096 8.50894 60.3014 8.54509 60.6469C8.67622 61.9097 7.83004 63.0328 7.05847 63.7776ZM4.0422 63.3444C3.72817 62.9923 3.45438 62.5527 3.28417 62.0064C3.06825 61.3132 3.03376 60.6446 3.12638 60.0116C3.52353 60.6248 4.10644 61.0317 4.75122 61.2271C4.6792 61.3086 4.61722 61.4027 4.56844 61.508C4.3001 62.0853 4.11967 62.71 4.0422 63.3444Z" fill="#5B6590"/>
<path d="M6.61457 54.9624C5.27716 55.9655 2.18835 58.7084 3.21701 62.0104C3.77109 63.7889 5.42321 64.4371 5.98618 64.6098C6.59764 64.1831 8.6785 62.58 8.47793 60.6509C8.33877 59.3132 8.06159 58.7815 7.71067 58.1087C7.35171 57.4203 6.95057 56.651 6.61457 54.9624ZM6.07054 65.6C6.03668 65.6 6.00253 65.5966 5.96896 65.5891C5.85361 65.5639 3.13435 64.9401 2.30969 62.2931C0.795043 57.4306 6.46077 53.8919 6.70295 53.7435C6.83809 53.6609 7.00538 53.6508 7.14913 53.7168C7.29317 53.7828 7.39475 53.9162 7.42 54.0726C7.75485 56.138 8.17923 56.9515 8.5534 57.6694C8.91953 58.3715 9.26529 59.0346 9.4231 60.5525C9.71836 63.3946 6.45934 65.4433 6.32046 65.5291C6.24471 65.5759 6.15805 65.6 6.07054 65.6Z" fill="#AB5C43"/>
<path d="M15.0407 66.8999C15.0407 66.8999 10.6904 69.9343 6.69512 67.8798C4.22534 66.6098 3.94432 63.7967 4.91755 61.7029C5.22428 61.0421 6.23573 61.327 6.13042 62.0478C6.01709 62.8243 6.2013 63.6928 6.99095 64.5665C9.48901 67.3309 15.247 63.4808 15.247 63.4808L15.0407 66.8999Z" fill="#B3C2D1"/>
<path d="M9.74528 68.1368C8.83397 68.1368 7.87789 67.9577 6.95023 67.4808C5.79933 66.8889 5.18213 65.9156 4.98242 64.8488C5.35458 65.5127 5.92702 66.0912 6.73273 66.5055C7.74332 67.0249 8.77658 67.2188 9.75647 67.2188C10.4856 67.2188 11.1851 67.1115 11.8238 66.9506C11.8606 67.2395 11.9122 67.5253 11.9673 67.8119C11.291 68.0025 10.5349 68.1368 9.74528 68.1368Z" fill="#7D87B4"/>
<path d="M9.76971 69.0752C8.72124 69.0752 7.61022 68.8658 6.51528 68.3028C3.78577 66.8991 3.44755 63.8194 4.52423 61.503C4.76382 60.9874 5.3133 60.7412 5.86135 60.905C6.39964 61.0657 6.719 61.5641 6.63837 62.1168C6.52733 62.8754 6.77036 63.5727 7.38096 64.2484C9.57459 66.6762 14.9664 63.1222 15.0206 63.086C15.2387 62.9405 15.534 62.9991 15.6797 63.2172C15.8252 63.4352 15.7667 63.7302 15.5486 63.876C15.3693 63.9962 12.2661 66.0418 9.52007 66.042C8.45439 66.042 7.44266 65.7339 6.67596 64.8857C5.87484 63.9991 5.54572 63.0212 5.69779 61.9796C5.70296 61.9452 5.71644 61.8533 5.58962 61.8158C5.52448 61.796 5.43611 61.7957 5.38589 61.9033C4.5007 63.8085 4.75349 66.3281 6.94998 67.4578C10.6371 69.3539 14.7656 66.5387 14.8069 66.51C15.0224 66.3608 15.3182 66.4136 15.468 66.6288C15.6178 66.844 15.5652 67.1399 15.35 67.2899C15.2117 67.3866 12.7447 69.0752 9.76971 69.0752Z" fill="#AB5C43"/>
<path d="M22.6596 37.8832C22.6596 37.8832 10.7707 55.8058 12.2978 66.8471C12.6605 69.4706 13.6111 71.7549 15.7514 73.3149C17.1815 74.3571 18.9808 74.7519 22.6114 74.4093C23.3546 74.339 24.527 74.3571 25.6378 74.3749C26.4641 74.3881 27.2561 74.4016 27.811 74.3786C31.9856 74.2059 32.9084 66.2371 29.5366 62.671C27.8561 60.8935 21.2838 59.9744 17.215 66.1544L22.6596 37.8832Z" fill="#B3C2D1"/>
<path d="M17.8772 65.7512C18.2887 65.3437 18.6904 64.9457 19.113 64.5739C19.7015 64.0402 20.3268 63.5593 20.9948 63.1475C21.6602 62.7329 22.3769 62.396 23.1313 62.1771C23.8859 61.9613 24.6695 61.8451 25.4526 61.8445C25.4641 61.8445 25.4753 61.8442 25.4867 61.8442C25.7372 61.8442 25.988 61.856 26.2368 61.8798C25.7524 62.0465 25.0916 62.3005 24.7028 62.5596C24.0351 63.0049 23.9272 63.6103 23.9272 63.6103H23.9169C23.7826 63.6103 22.3623 63.6241 20.8074 64.1925C19.8771 64.5328 18.6278 65.2777 17.8772 65.7512Z" fill="#D1DAE3"/>
<path d="M20.304 74.0641C19.8423 74.0641 19.3844 74.0441 18.9339 73.9961C18.148 73.9152 17.3922 73.7281 16.7162 73.3875C16.3773 73.2154 16.0614 73.0122 15.7572 72.7623C15.5994 72.6472 15.4605 72.511 15.3125 72.385C15.2404 72.3199 15.1742 72.2487 15.1047 72.181C15.0361 72.1124 14.9653 72.0458 14.903 71.9712C14.6382 71.6869 14.4049 71.3755 14.1868 71.0533C13.9791 70.7239 13.7805 70.3873 13.6213 70.0281C12.9639 68.6035 12.6741 66.9837 12.6124 65.388C12.5645 64.0394 12.6824 62.6791 12.9016 61.3311C12.8557 62.3402 12.8893 63.3155 13.0178 64.242C13.3802 66.8661 13.9868 69.2858 15.8817 71.1351C16.8499 72.08 18.3824 72.5115 19.8346 72.5115C20.6429 72.5115 21.4262 72.3778 22.0738 72.1247C23.5914 71.5314 24.0497 69.8459 24.0497 69.8459C24.0497 69.8459 25.5911 71.8998 27.7136 71.9001C27.9113 71.9001 28.1136 71.8823 28.3207 71.8433C29.5632 71.6094 30.2785 71.2547 30.8085 70.6705C30.7608 70.8631 30.7057 71.053 30.6392 71.2381C30.5138 71.6031 30.3614 71.958 30.1669 72.2805C29.7921 72.9348 29.2535 73.469 28.6059 73.7293C28.5233 73.7568 28.4427 73.7904 28.3595 73.8157L28.1038 73.8733C27.9268 73.8957 27.7658 73.9175 27.556 73.9198C27.3747 73.9241 27.1913 73.9258 27.0066 73.9258C26.783 73.9258 26.5578 73.9235 26.3325 73.9207C25.5988 73.9118 24.8617 73.894 24.1168 73.894C24.0244 73.894 23.932 73.8943 23.8393 73.8948C23.4187 73.8986 22.9978 73.9063 22.5593 73.9433L21.947 73.9947L21.3384 74.0343C20.9927 74.0529 20.6475 74.0641 20.304 74.0641Z" fill="#7D87B4"/>
<path d="M22.8163 37.9662C22.1248 39.481 21.3314 40.9257 20.5418 42.3724L19.361 44.5434C18.9745 45.2705 18.5826 45.9953 18.2076 46.7284C17.4564 48.1941 16.7548 49.6847 16.1121 51.1986C15.4679 52.7116 14.8765 54.2461 14.3629 55.8036C13.8504 57.3611 13.4146 58.9421 13.1076 60.5432C12.8025 62.1426 12.6244 63.7664 12.6815 65.3735C12.7431 66.9692 13.033 68.5889 13.6903 70.0136C13.8496 70.3728 14.0481 70.7094 14.2559 71.0388C14.4739 71.361 14.7072 71.6724 14.9721 71.9567C15.0343 72.0313 15.1052 72.0979 15.1738 72.1665C15.2432 72.2342 15.3095 72.3053 15.3815 72.3705C15.5296 72.4964 15.6685 72.6327 15.8263 72.7478C16.1304 72.9977 16.4463 73.2009 16.7852 73.373C17.4612 73.7136 18.217 73.9007 19.003 73.9816C19.7886 74.0654 20.5969 74.064 21.4075 74.0198L22.0161 73.9802L22.6284 73.9288C23.0668 73.8918 23.4878 73.8841 23.9084 73.8803C24.7477 73.8749 25.5769 73.8961 26.4016 73.9061C26.8131 73.911 27.2245 73.915 27.6251 73.9053C27.8349 73.903 27.9958 73.8812 28.1729 73.8588L28.4285 73.8011C28.5117 73.7759 28.5924 73.7423 28.675 73.7148C29.3226 73.4545 29.8612 72.9202 30.2359 72.266C30.4305 71.9435 30.5828 71.5886 30.7082 71.2236C30.8391 70.8597 30.9257 70.477 30.9992 70.0931C31.132 69.3206 31.1731 68.5252 31.1085 67.7382C31.0844 67.3436 31.0198 66.9537 30.9487 66.5663C30.8646 66.1821 30.7714 65.7988 30.6382 65.4303C30.3869 64.6883 30.0222 63.9914 29.5513 63.3868C29.4965 63.3076 29.4299 63.2393 29.368 63.1667L29.2738 63.0591C29.2426 63.0229 29.211 62.9854 29.1809 62.9598L29.0911 62.8737C29.0606 62.845 29.0236 62.8198 28.9903 62.7923C28.9255 62.7363 28.8492 62.6878 28.7746 62.6379C28.4718 62.4416 28.1232 62.2864 27.7608 62.1662C27.0331 61.9269 26.2487 61.817 25.467 61.8204C24.684 61.821 23.9004 61.9372 23.1457 62.153C22.3914 62.3719 21.6746 62.7087 21.0092 63.1234C20.3412 63.5351 19.716 64.016 19.1275 64.5497C18.5295 65.076 17.9734 65.6544 17.372 66.2372L17.3697 66.2395C17.3057 66.3015 17.2033 66.2998 17.1413 66.2358C17.0954 66.1884 17.0845 66.1204 17.1074 66.063C17.747 64.4763 18.986 63.142 20.4841 62.2554C21.9914 61.3843 23.7159 60.8726 25.4645 60.8701C26.3373 60.8672 27.2148 60.9868 28.061 61.2646C28.4836 61.4055 28.8988 61.5865 29.2916 61.8405C29.3895 61.9053 29.4873 61.969 29.5803 62.0474C29.6271 62.0855 29.6753 62.12 29.7206 62.1619L29.8552 62.2901C29.9028 62.3334 29.9378 62.3753 29.9745 62.4172L30.085 62.5432C30.1576 62.6278 30.2348 62.709 30.2988 62.7997C30.8462 63.5024 31.256 64.2941 31.5363 65.1199C31.6841 65.5311 31.788 65.954 31.8804 66.3781C31.9593 66.8045 32.029 67.2332 32.056 67.6659C32.1263 68.5293 32.0827 69.401 31.9346 70.2601C31.8531 70.6885 31.7558 71.116 31.6069 71.5323C31.4637 71.9492 31.2878 72.3601 31.0554 72.7475C30.8247 73.134 30.5567 73.5096 30.2127 73.8278C29.8735 74.1478 29.4724 74.4175 29.0276 74.5971C28.9146 74.637 28.8027 74.6812 28.6882 74.7153L28.3378 74.7948C28.106 74.8284 27.8541 74.8536 27.6498 74.855C27.2228 74.8657 26.8059 74.8614 26.3896 74.8565C25.5583 74.8462 24.7319 74.8252 23.915 74.8307C23.5078 74.8341 23.1001 74.8424 22.7136 74.8754L22.0881 74.9279L21.4574 74.9687C20.6152 75.0143 19.7619 75.018 18.8999 74.9262C18.0417 74.8381 17.1611 74.6272 16.356 74.2206C15.9565 74.0189 15.5729 73.7693 15.2372 73.4935C15.0604 73.3638 14.9018 73.2106 14.7353 73.0674C14.6541 72.9937 14.5787 72.9136 14.5001 72.8367C14.4223 72.7587 14.3425 72.6832 14.2714 72.5992C13.9718 72.2766 13.707 71.9243 13.4616 71.5604C13.2272 71.1906 13.0054 70.8113 12.8281 70.413C12.4559 69.6233 12.2126 68.7889 12.0321 67.9519C11.9501 67.5316 11.8703 67.1132 11.8295 66.6871C11.7914 66.2613 11.7306 65.8352 11.732 65.4094C11.6714 63.7047 11.8597 62.0155 12.1742 60.3648C12.4909 58.7126 12.938 57.0946 13.4602 55.5066C14.5055 52.3283 15.8667 49.2778 17.3301 46.288C17.6945 45.5393 18.0704 44.7965 18.4635 44.0625C18.6589 43.6952 18.8575 43.3294 19.0586 42.9652C19.2678 42.6051 19.4672 42.2402 19.6839 41.8846C20.534 40.454 21.4382 39.0529 22.5524 37.7912C22.6109 37.7249 22.7119 37.7186 22.7779 37.7771C22.8321 37.8248 22.8462 37.9008 22.8178 37.9631L22.8163 37.9662Z" fill="#AB5C43"/>
<path d="M19.8792 14.8809C19.8792 14.8809 14.1715 9.7958 8.20925 11.6569C-5.10889 15.8137 1.31635 39.758 8.13264 42.6276C14.6702 45.3799 19.2029 31.4675 19.2029 31.4675L19.8792 14.8809Z" fill="#B3C2D1"/>
<path d="M9.92095 43.0584C9.33847 43.0584 8.75599 42.9364 8.17781 42.6931C3.90731 40.8955 0.0881869 31.3778 0.467459 23.4787C0.76484 17.2835 3.53263 13.0589 8.26073 11.5829C14.1946 9.73103 19.9454 14.7716 20.0027 14.8227L19.9037 14.9338C19.8469 14.883 14.1584 9.89802 8.30521 11.7249C3.64072 13.1806 0.909915 17.3572 0.615777 23.4856C0.433831 27.2752 1.2157 31.6208 2.76091 35.4084C4.27728 39.1245 6.27255 41.7299 8.2352 42.5562C9.40217 43.0475 10.5861 43.0263 11.7542 42.4923C16.2272 40.4481 19.1769 31.5316 19.2062 31.4418L19.3474 31.4877C19.3178 31.5781 16.3483 40.556 11.8162 42.6271C11.1875 42.9146 10.5542 43.0584 9.92095 43.0584Z" fill="#AB5C43"/>
<path d="M0.907236 25.718C0.872603 24.9656 0.871828 24.2253 0.906375 23.506C1.10841 19.2983 2.55766 13.9057 8.31475 12.1086C9.17987 11.8386 10.0424 11.7244 10.8834 11.7244C13.6782 11.7244 16.2313 12.988 17.8267 13.9989C17.6517 14.2405 17.4832 14.4856 17.3214 14.7332C15.7323 13.8953 13.6457 13.1143 11.391 13.1143C10.5012 13.1143 9.58531 13.2359 8.66309 13.5235C3.22987 15.2201 1.08255 20.2096 0.907236 25.718Z" fill="#D9E1E8"/>
<path d="M9.88072 43.4674C9.24602 43.4674 8.6116 43.3348 7.9812 43.0694C3.58058 41.2167 -0.359805 31.5068 0.0261814 23.4659C0.332228 17.0902 3.19978 12.7365 8.10057 11.2072C14.249 9.28785 19.9872 14.3153 20.2285 14.5302C20.4245 14.7046 20.4417 15.0051 20.2672 15.201C20.0925 15.397 19.7924 15.4142 19.5964 15.2398C19.5278 15.1792 14.0069 10.3596 8.38377 12.1142C2.62668 13.9113 1.17743 19.3039 0.975395 23.5116C0.796203 27.2449 1.5674 31.5286 3.09132 35.2636C4.546 38.8291 6.51209 41.4195 8.34992 42.1934C9.42421 42.6456 10.4698 42.6264 11.5464 42.1346C15.8585 40.1648 18.7554 31.4124 18.7844 31.3243C18.8656 31.0746 19.1338 30.9383 19.3832 31.0198C19.6328 31.101 19.7691 31.3693 19.6876 31.6187C19.5651 31.9948 16.6326 40.8549 11.9421 42.9986C11.2583 43.311 10.5694 43.4674 9.88072 43.4674Z" fill="#AB5C43"/>
<path d="M19.0415 19.8323C19.0415 19.8323 16.5793 16.948 10.8428 16.5121C5.10642 16.0766 3.18877 21.3335 4.49625 28.9058C5.80367 36.478 8.44578 40.4004 11.3602 39.7273C13.9002 39.1405 18.2788 34.19 18.3152 27.1279C18.3442 21.4922 19.0415 19.8323 19.0415 19.8323Z" fill="#FF5A99"/>
<path d="M4.79549 27.9906C4.171 23.6441 4.7117 20.2938 6.34093 18.5016C7.2706 17.479 8.55292 16.9628 10.1586 16.9628C10.3575 16.9628 10.5612 16.9705 10.7698 16.9866C12.8154 17.1418 14.4317 17.6219 15.6543 18.1622C15.1565 19.4815 14.8265 20.8496 14.6753 22.2418C13.7399 21.9764 12.6624 21.771 11.4346 21.6777C11.2125 21.6608 10.9959 21.6525 10.7853 21.6525C7.18108 21.6525 5.24253 24.0923 4.79549 27.9906Z" fill="#B23F8D"/>
<path d="M10.0882 16.9614C8.48252 16.9614 7.20021 17.4776 6.27053 18.5002C4.53859 20.4055 4.03662 24.0717 4.85709 28.8239C5.74429 33.9615 7.32531 37.6205 9.19499 38.8627C9.82596 39.2819 10.4825 39.4164 11.1462 39.2635C12.0985 39.0434 13.7498 37.9513 15.27 35.597C16.8427 33.1624 17.7173 30.1533 17.7328 27.1247C17.7554 22.6998 18.1902 20.6689 18.3939 19.9576C17.744 19.3372 15.3125 17.3355 10.6994 16.9852C10.4908 16.9691 10.2871 16.9614 10.0882 16.9614ZM10.6073 40.2767C9.94217 40.2767 9.29283 40.0686 8.66903 39.6543C6.55202 38.2477 4.86569 34.4588 3.92067 28.9857C3.03662 23.8653 3.60599 20.0184 5.56725 17.8609C6.81944 16.4839 8.57004 15.8704 10.7714 16.0374C16.6375 16.4833 19.1898 19.3989 19.2957 19.5226L19.4857 19.7452L19.3735 20.0127C19.356 20.0577 18.7107 21.7673 18.6831 27.1295C18.6619 31.2408 17.2496 34.2837 16.0685 36.1127C14.6692 38.2796 12.8649 39.8417 11.3599 40.1892C11.1071 40.2477 10.8561 40.2767 10.6073 40.2767Z" fill="#AB5C43"/>
<path d="M34.3694 46.7253C29.3391 46.7253 24.7777 46.0599 21.397 44.7973L21.7123 43.1589C25.0497 44.3121 29.5081 44.9434 34.3696 44.9434C38.0769 44.9434 41.4627 44.3377 44.3163 43.3618C44.388 43.5641 44.4586 43.7664 44.5272 43.9692C44.6328 44.2886 44.7458 44.6054 44.8509 44.9253C41.9089 46.0237 38.3216 46.7253 34.3694 46.7253Z" fill="#7D87B4"/>
<path d="M21.3546 44.8131C21.3543 44.8131 21.3543 44.8131 21.354 44.8128C20.8694 44.6323 20.4097 44.4387 19.9762 44.2332C19.8605 44.179 19.7466 44.1236 19.635 44.0674L20.3882 42.6826C20.594 42.7701 20.8051 42.8556 21.0223 42.9388C21.233 43.0198 21.4493 43.0984 21.67 43.1747L21.3546 44.8131Z" fill="#7D87B4"/>
<path d="M19.6481 44.0511C19.4934 43.973 19.3425 43.8933 19.1956 43.8121C19.4515 43.3406 19.7011 42.8899 19.9419 42.4629C20.0917 42.532 20.2449 42.5998 20.4013 42.6663L19.6481 44.0511Z" fill="#AB5C43"/>
<path d="M42.6333 37.8697C43.4315 38.6754 43.8791 39.6544 44.3012 40.6369C44.7305 41.6188 45.1256 42.6124 45.4702 43.6333C45.632 44.1487 45.816 44.658 45.9457 45.1814L46.1574 45.9618C46.2292 46.2215 46.282 46.4855 46.3451 46.7472L46.5299 47.5325L46.6897 48.3227C46.7405 48.5864 46.8013 48.8484 46.8441 49.1135L46.9804 49.9072C47.166 50.9646 47.3043 52.0285 47.4265 53.0939C47.4773 53.6276 47.533 54.161 47.5737 54.6956C47.6096 55.2307 47.6613 55.7644 47.6925 56.3004C47.7089 56.5681 47.7313 56.8359 47.7425 57.1039C47.7531 57.3721 47.7571 57.641 47.762 57.9093C47.7643 58.1778 47.7588 58.4467 47.7448 58.7156C47.7327 58.9844 47.7224 59.2524 47.694 59.5213C47.6719 59.7899 47.6435 60.0579 47.6116 60.3253C47.576 60.5933 47.531 60.8601 47.4871 61.1261C47.4684 61.2593 47.434 61.3921 47.4059 61.5247C47.3763 61.657 47.3485 61.7895 47.3152 61.9206C47.2507 62.1841 47.1646 62.4449 47.0776 62.7008C47.0644 62.7393 47.0225 62.7599 46.9838 62.747C46.9542 62.7367 46.935 62.7097 46.9339 62.6802V62.677C46.8905 61.6036 46.8527 60.5563 46.8022 59.5021C46.7987 59.3709 46.7927 59.2395 46.7838 59.1078C46.7758 58.9764 46.7726 58.845 46.7669 58.7136C46.7543 58.4507 46.7543 58.1882 46.7393 57.9253L46.7049 56.3475C46.6992 55.8207 46.6604 55.295 46.6263 54.7693C46.5861 54.2442 46.5313 53.72 46.4817 53.1958C46.3614 52.1493 46.226 51.1043 46.0438 50.0676C45.9526 49.5494 45.8582 49.0318 45.7411 48.5193L45.5747 47.7486L45.381 46.9853C45.3127 46.732 45.2547 46.4754 45.1784 46.2249L44.9529 45.472C44.8111 44.967 44.6289 44.4769 44.4648 43.9808C44.1282 42.9877 43.7483 42.0004 43.3822 41.0113C42.9985 40.0266 42.6077 39.0513 42.5019 37.9325L42.5016 37.9313C42.4976 37.8889 42.5288 37.8513 42.571 37.8473C42.5948 37.845 42.6175 37.8542 42.6333 37.8697Z" fill="#AB5C43"/>
<path d="M52.8527 35.6319C52.3454 39.7721 44.5657 44.4629 34.3433 44.4629C24.1206 44.4629 15.8324 41.7175 15.4646 36.7874C15.3834 35.6996 15.5776 34.6219 16.4339 32.6543C16.7747 31.8713 16.7934 31.1554 16.6135 30.3241C16.091 27.9127 15.1145 26.7753 15.0944 24.1022C15.021 14.2709 24.0692 6.18633 34.283 6.155C44.5329 6.12361 52.8527 14.1119 52.8527 23.9711C52.8527 26.6947 52.2185 28.3503 51.084 30.3256C50.6576 31.0682 50.7368 31.6096 51.2659 32.2879C52.2863 33.5955 53.0659 33.893 52.8527 35.6319Z" fill="#B3C2D1"/>
<path d="M34.2739 6.22991C34.2535 6.22991 34.2337 6.22991 34.213 6.23005C28.9816 6.24618 23.8644 8.39444 20.1741 12.124C16.8683 15.4648 15.0661 19.7187 15.0988 24.1025C15.1111 25.7558 15.4968 26.8298 15.9048 27.9666C16.1573 28.6696 16.4181 29.3962 16.6161 30.3095C16.8141 31.2234 16.759 31.9335 16.4322 32.6847C15.5298 34.7581 15.3943 35.79 15.4686 36.7828C15.8081 41.3327 23.3651 44.3894 34.2733 44.3894C38.9897 44.3894 43.558 43.3757 47.1372 41.5347C50.3767 39.8685 52.4596 37.6588 52.7092 35.6235C52.8702 34.3099 52.4616 33.8529 51.7844 33.0959C51.5896 32.8778 51.3687 32.6308 51.1374 32.3344C50.5727 31.6107 50.5202 31.0374 50.9497 30.2897C52.0636 28.3503 52.7087 26.6949 52.7087 23.9719C52.7087 19.3508 50.8723 14.975 47.5384 11.6512C44.0306 8.1537 39.3216 6.22991 34.2739 6.22991ZM34.2733 44.5381C29.138 44.5381 24.4638 43.8299 21.1118 42.5442C17.5004 41.1588 15.4979 39.1706 15.3206 36.7937C15.2311 35.5948 15.4953 34.4652 16.2959 32.6256C16.6095 31.9051 16.6617 31.2219 16.4709 30.3408C16.2752 29.4372 16.0158 28.7153 15.765 28.0169C15.3524 26.8677 14.9628 25.7825 14.9501 24.1036C14.9172 19.6799 16.7349 15.3885 20.0685 12.0196C23.7866 8.26216 28.942 6.0978 34.2127 6.08153C34.2328 6.08153 34.2538 6.08142 34.2739 6.08142C39.3615 6.08142 44.1069 8.02056 47.6431 11.5459C51.0054 14.8979 52.857 19.3109 52.857 23.9719C52.857 26.7279 52.2048 28.4025 51.0786 30.3634C50.6797 31.0578 50.7274 31.5674 51.2545 32.2431C51.4826 32.5355 51.7018 32.7806 51.8952 32.9969C52.5761 33.7582 53.0257 34.2609 52.8564 35.6416C52.6011 37.7256 50.4886 39.9781 47.2052 41.6667C43.6053 43.5183 39.0129 44.5381 34.2733 44.5381Z" fill="#AB5C43"/>
<path d="M16.1216 19.9807C16.8645 17.2066 18.3743 14.6024 20.5522 12.4016C23.8858 9.03265 28.4065 6.98048 33.1085 6.66809C33.1025 7.0591 33.1246 7.42494 33.1613 7.75463C25.4668 8.23209 18.6185 13.2322 16.1216 19.9807ZM51.8256 19.6019C49.6294 13.6144 44.2006 9.09405 37.5586 7.9816C38.0742 7.75893 38.7063 7.69036 39.29 7.69036C39.9637 7.69036 40.5729 7.78189 40.8644 7.83383C40.9014 7.84043 40.9378 7.84616 40.974 7.85104C41.0133 7.85621 41.052 7.86023 41.0899 7.86281C43.419 8.76092 45.546 10.1336 47.3483 11.9304C49.5304 14.106 51.0561 16.7421 51.8256 19.6019ZM36.1096 7.79538C36.0817 7.79279 36.0542 7.7905 36.0264 7.7882C36.0307 7.77873 36.0347 7.76898 36.0384 7.75922L36.1096 7.79538ZM35.1412 7.73254C35.0688 7.72967 34.9971 7.72737 34.9248 7.72536L35.1285 7.68404C35.132 7.7004 35.136 7.71676 35.1412 7.73254Z" fill="#D9E1E8"/>
<path d="M34.2474 44.0061C23.5619 44.0061 16.1655 41.0983 15.8424 36.7705C15.8209 36.4835 15.8186 36.1923 15.851 35.868C17.7996 39.7153 25.2792 41.8286 34.2471 41.8286C37.3489 41.8286 40.2248 41.397 42.7418 40.6797C44.8514 40.6576 46.7997 40.3135 48.2846 39.8714C48.8688 39.6972 49.4194 39.4803 49.9376 39.2269C46.8387 41.865 41.0047 44.0061 34.2474 44.0061Z" fill="#7D87B4"/>
<path d="M34.2331 6.62868H34.1737C29.0479 6.64452 24.0342 8.74945 20.4183 12.4039C17.1882 15.6681 15.427 19.8209 15.4588 24.0974C15.4709 25.6824 15.8278 26.6772 16.2416 27.829C16.4981 28.544 16.7635 29.2832 16.967 30.2223C17.1813 31.2114 17.1171 32.0197 16.759 32.8426C15.8895 34.8403 15.7581 35.819 15.8276 36.7507C16.1507 41.0786 23.547 43.9864 34.2325 43.9864C43.9663 43.9864 51.7838 39.5443 52.2705 35.5725C52.4094 34.4394 52.1069 34.1014 51.445 33.3608C51.2458 33.1382 51.02 32.8857 50.7807 32.5786C50.1144 31.725 50.0487 30.9798 50.5612 30.0878C51.6415 28.2072 52.2668 26.6032 52.2668 23.9697C52.2668 19.4559 50.4725 15.1808 47.2144 11.9327C43.7823 8.51101 39.1738 6.62868 34.2331 6.62868ZM34.2325 44.9367C29.0493 44.9367 24.324 44.2191 20.9276 42.9164C17.161 41.4717 15.0695 39.3638 14.8798 36.8213C14.7851 35.5504 15.058 34.3694 15.8875 32.4633C16.165 31.826 16.21 31.216 16.0382 30.4235C15.8479 29.5454 15.5934 28.8361 15.3469 28.1501C14.9226 26.9679 14.5217 25.8514 14.5085 24.1043C14.4747 19.5735 16.3334 15.1808 19.7425 11.7356C23.5352 7.9027 28.7939 5.69487 34.1705 5.67849C34.1915 5.67834 34.2124 5.67834 34.2331 5.67834C39.4278 5.67834 44.2736 7.65881 47.8855 11.2599C51.3236 14.6876 53.2171 19.2014 53.2171 23.9697C53.2171 26.8152 52.5456 28.5412 51.3853 30.5609C51.0691 31.1118 51.1026 31.4467 51.5299 31.9942C51.7497 32.2762 51.9548 32.5055 52.1534 32.7273C52.8527 33.5095 53.405 34.1272 53.2136 35.6882C52.6776 40.0625 44.7505 44.9367 34.2325 44.9367Z" fill="#AB5C43"/>
<path d="M35.1537 39.0564C35.1537 39.0564 32.0846 40.6796 31.1151 38.8748C30.3524 37.4544 31.1151 35.8309 31.1151 35.8309L35.1537 39.0564Z" fill="#F7528A"/>
<path d="M32.7447 40.2033C31.9565 40.2033 31.1847 39.9405 30.7327 39.0989C29.8665 37.4866 30.686 35.7036 30.7213 35.6284C30.8329 35.3911 31.1155 35.2884 31.3534 35.4006C31.5907 35.5122 31.6928 35.7951 31.5812 36.0327C31.5755 36.0456 30.933 37.4636 31.5697 38.6493C32.2928 39.9953 34.9415 38.6496 34.9679 38.6355C35.1998 38.5135 35.4876 38.6025 35.6098 38.8343C35.7323 39.0662 35.6437 39.3534 35.4118 39.4759C35.324 39.5224 34.0133 40.2033 32.7447 40.2033Z" fill="#AB5C43"/>
<path d="M24.493 22.1338C24.0732 22.4248 23.5501 21.9467 23.8103 21.5072C24.3808 20.5433 25.2579 19.568 26.5136 19.4168C28.7847 19.1431 28.1787 20.5433 26.9661 20.8971C26.2585 21.1037 25.3314 21.5528 24.493 22.1338Z" fill="#AB5C43"/>
<path d="M48.1057 22.1338C48.5255 22.4248 49.0486 21.9467 48.7886 21.5072C48.2182 20.5433 47.3408 19.568 46.0854 19.4168C43.814 19.1431 44.4203 20.5433 45.6326 20.8971C46.3402 21.1037 47.2673 21.5528 48.1057 22.1338Z" fill="#AB5C43"/>
<path d="M33.6446 7.99041C33.327 5.80772 33.751 2.62654 37.4534 0.705215C39.5463 -0.380896 41.3101 2.68528 39.284 3.8919C39.2444 3.91549 39.2037 3.93856 39.1618 3.96108C37.6738 4.75851 35.8586 6.11792 35.5699 7.60075L33.6446 7.99041Z" fill="#B3C2D1"/>
<path d="M33.4995 8.00566C33.2283 6.1429 33.3675 2.70933 37.3476 0.644023C38.485 0.0532217 39.4787 0.638573 39.9205 1.43201C40.3492 2.20217 40.3225 3.32189 39.2505 3.96035C39.2098 3.98456 39.1682 4.00826 39.1249 4.03122C38.3771 4.43193 35.9106 5.87547 35.5709 7.61973L35.4254 7.59132C35.7775 5.78282 38.2925 4.30894 39.0549 3.90023C39.0962 3.87822 39.1361 3.85567 39.1745 3.83286C40.1613 3.24496 40.1857 2.21365 39.7906 1.50429C39.3825 0.771395 38.4655 0.231007 37.4159 0.775756C33.5176 2.79886 33.381 6.16057 33.6464 7.98443L33.4995 8.00566Z" fill="#AB5C43"/>
<path d="M34.2939 4.77236C34.7292 3.47174 35.6821 2.12758 37.6075 1.12844C37.8431 1.00609 38.0686 0.952637 38.2781 0.952637C38.7948 0.952637 39.2143 1.27779 39.4473 1.69615C39.5512 1.88286 39.6246 2.10268 39.6387 2.33027C39.3067 1.93436 38.825 1.66576 38.2743 1.66576C37.9934 1.66576 37.6944 1.7358 37.3886 1.89459C35.8537 2.69101 34.8827 3.70387 34.2939 4.77236Z" fill="#D9E1E8"/>
<path d="M33.5326 8.46507C33.3004 8.46507 33.0976 8.29491 33.0631 8.05848C32.7765 6.09012 32.9228 2.46265 37.123 0.283021C38.4369 -0.399141 39.681 0.244083 40.2308 1.2318C40.7674 2.19548 40.6598 3.55869 39.4159 4.2997C39.3697 4.32719 39.3224 4.35396 39.2736 4.37998C37.8145 5.16191 36.1678 6.44291 35.9248 7.6912C35.8745 7.94887 35.6249 8.11701 35.3675 8.0668C35.1101 8.01659 34.9417 7.76695 34.9919 7.50957C35.3672 5.58182 37.7982 4.09253 38.8257 3.54176C38.8624 3.52227 38.8966 3.50282 38.9299 3.48305C39.7427 2.99884 39.6917 2.21663 39.4007 1.69417C39.0733 1.10615 38.3772 0.70235 37.5609 1.12647C33.8826 3.03529 33.7532 6.20303 34.0034 7.92132C34.0413 8.18128 33.8614 8.42231 33.6017 8.46019C33.5785 8.46363 33.5555 8.46507 33.5326 8.46507Z" fill="#AB5C43"/>
<path d="M35.6101 7.5658C36.4557 6.10352 38.2209 4.39364 41.3577 4.99718C43.1307 5.33835 42.7347 8.01801 40.9445 7.781C40.9095 7.77641 40.8742 7.77096 40.8381 7.76465C39.5655 7.53711 37.8293 7.49206 36.9518 8.24584L35.6101 7.5658Z" fill="#B3C2D1"/>
<path d="M36.9223 8.30373L36.8253 8.19125C37.9016 7.26674 40.119 7.57606 40.7732 7.69313C40.8079 7.69944 40.8424 7.7049 40.8762 7.7092C41.737 7.82197 42.2343 7.22284 42.3327 6.61729C42.4343 5.99131 42.1436 5.2406 41.2656 5.07165C37.9736 4.43879 36.3005 6.38694 35.5963 7.60475L35.4678 7.53044C36.1917 6.27836 37.911 4.27472 41.2937 4.92592C42.269 5.11355 42.5918 5.94646 42.4791 6.64111C42.3697 7.31524 41.8154 7.98466 40.8567 7.8564C40.8206 7.85152 40.7841 7.84578 40.7471 7.83918C40.1093 7.72527 37.9486 7.42226 36.9223 8.30373Z" fill="#AB5C43"/>
<path d="M35.6701 7.62931L35.6101 7.59918C36.221 6.54452 37.5564 4.94617 40.0384 4.94617C40.4232 4.94617 40.8358 4.98465 41.2774 5.06952C42.1554 5.23847 42.4461 5.98918 42.3445 6.61516C42.3015 6.88003 42.1821 7.14353 41.9896 7.34696C42.0231 6.70701 41.6682 6.04585 40.8458 5.88763C40.4019 5.80218 39.9856 5.76313 39.5954 5.76313C37.7423 5.76313 36.4792 6.64443 35.6701 7.62931Z" fill="#D9E1E8"/>
<path d="M35.6764 7.59967L35.6101 7.56581C36.3361 6.31043 37.7395 4.87268 40.107 4.87268C40.4972 4.87268 40.9138 4.91179 41.3577 4.99718C42.6687 5.24946 42.7927 6.77911 42.0452 7.46395C42.0504 7.42521 42.0538 7.38647 42.0558 7.34745C42.2484 7.14401 42.3677 6.88052 42.4108 6.61565C42.5124 5.98967 42.2217 5.23896 41.3437 5.07001C40.9021 4.98513 40.4895 4.94665 40.1047 4.94665C37.6227 4.94665 36.2873 6.545 35.6764 7.59967Z" fill="#8080B9"/>
<path d="M36.9901 8.71889C36.8564 8.71889 36.7235 8.66294 36.6294 8.55333C36.4584 8.35419 36.4811 8.05434 36.6802 7.88333C37.8572 6.87217 40.0649 7.13472 40.9599 7.29454C40.9886 7.2997 41.017 7.30429 41.0448 7.30802C41.6841 7.3921 41.9877 6.95202 42.0531 6.54936C42.1082 6.20932 42.0129 5.59763 41.3059 5.46156C38.2581 4.87592 36.7103 6.67602 36.0596 7.80184C35.9281 8.02881 35.6372 8.10628 35.4102 7.97515C35.183 7.84402 35.1055 7.55307 35.2366 7.3261C35.8624 6.24378 37.7235 3.80427 41.4855 4.52847C42.6683 4.75601 43.1383 5.79389 42.9911 6.7015C42.847 7.58836 42.0898 8.40556 40.9203 8.25004C40.8781 8.24458 40.8356 8.23799 40.7923 8.22995C39.5688 8.01159 38.0087 7.99495 37.2994 8.60411C37.2099 8.6813 37.0997 8.71889 36.9901 8.71889Z" fill="#AB5C43"/>
<path d="M41.5888 28.878C41.5888 28.878 42.313 33.1832 47.6425 31.8837C53.5678 30.4389 50.4838 24.7464 52.9884 23.6549C53.8521 23.2787 54.3907 23.7548 54.8234 24.3674C54.9591 24.5596 55.2547 24.625 55.5109 24.6118C56.1379 24.58 56.6216 25.0161 56.8429 26.091C57.5074 29.3208 55.3694 37.759 48.2738 39.8725C43.9786 41.1517 35.8055 41.6091 31.0691 35.8334L41.5888 28.878Z" fill="#B3C2D1"/>
<path d="M52.4641 37.5195C52.4644 37.5192 52.465 37.5186 52.4653 37.5184C52.465 37.5186 52.4647 37.5189 52.4641 37.5195ZM52.4757 37.5091C52.4768 37.5079 52.478 37.5068 52.4792 37.5059C52.4783 37.5068 52.4766 37.5082 52.4757 37.5091ZM52.4881 37.4978C52.4899 37.4961 52.4916 37.4946 52.4933 37.4932C52.4919 37.4946 52.4896 37.4964 52.4881 37.4978ZM52.498 37.4888C52.5015 37.4859 52.5046 37.4828 52.5078 37.4799C52.5046 37.483 52.5015 37.4856 52.498 37.4888Z" fill="#AB5C43"/>
<path d="M53.1965 36.7529C55.7549 33.9911 56.869 30.2234 56.9525 27.6616C56.869 30.2231 55.7549 33.9911 53.1965 36.7529Z" fill="#B23F8D"/>
<path d="M52.759 37.2134C52.9157 37.0619 53.0678 36.9061 53.2147 36.7474C53.0675 36.9061 52.9157 37.0616 52.759 37.2134Z" fill="#AB5C43"/>
<path d="M52.4641 37.4806C52.5571 37.3962 52.6483 37.3107 52.7381 37.2238C52.6486 37.3104 52.5571 37.3962 52.4641 37.4806Z" fill="#AB5C43"/>
<path d="M31.5976 35.5707C31.5512 35.5001 31.4852 35.4413 31.4034 35.4028C31.3896 35.3962 31.3758 35.3905 31.3621 35.3856L31.7942 34.1825C32.0556 34.4405 32.3236 34.6826 32.597 34.9099L31.5976 35.5707Z" fill="#7D87B4"/>
<path d="M31.0694 35.8388L31.2301 35.3917C31.2438 35.3966 31.2576 35.4023 31.2714 35.4089C31.3532 35.4474 31.4192 35.5062 31.4656 35.5768L31.0691 35.8388" fill="#AB5C43"/>
<path d="M42.5138 40.6593C38.5733 40.6593 34.1123 39.5216 31.0691 35.8106L31.4654 35.5486L32.4648 34.8878C35.3066 37.2479 38.755 37.9776 41.9021 37.9778C44.5783 37.9778 47.0365 37.4504 48.7214 36.9486C53.4705 35.5337 55.9996 31.2859 56.9525 27.6616C56.869 30.2234 55.7548 33.9911 53.1965 36.7529C53.0496 36.9116 52.8975 37.0674 52.7408 37.2189C52.651 37.3058 52.5598 37.3913 52.4668 37.4757C52.4662 37.4763 52.4654 37.4771 52.4645 37.4777C52.4613 37.4806 52.4582 37.4837 52.4547 37.4866C52.4533 37.488 52.4516 37.4895 52.4502 37.4909C52.4484 37.4923 52.4467 37.4938 52.445 37.4955C52.4418 37.4984 52.4392 37.5007 52.4361 37.5035C52.4349 37.5044 52.4338 37.5055 52.4326 37.5067C52.4292 37.5098 52.4258 37.5127 52.4223 37.5159C52.422 37.5162 52.4215 37.5167 52.4212 37.517C51.2849 38.5368 49.9113 39.3617 48.2735 39.8495C46.7381 40.3069 44.7063 40.659 42.5138 40.6593Z" fill="#7D87B4"/>
<path d="M42.0335 30.7805C41.8438 30.5745 41.6487 30.3805 41.4384 30.2032C41.2226 30.0331 40.9962 29.8793 40.756 29.7467C40.5136 29.6193 40.2591 29.516 39.9954 29.4368C39.7311 29.3593 39.4565 29.3151 39.1785 29.3019C38.8999 29.287 38.6187 29.3143 38.34 29.3705C38.0637 29.4265 37.7725 29.5197 37.5033 29.6359C36.9561 29.8652 36.4537 30.2155 36.0213 30.6689C35.9952 30.6965 35.9519 30.6976 35.9243 30.6715C35.9019 30.6503 35.8971 30.617 35.9105 30.5906C36.2061 30.0153 36.6718 29.5114 37.2313 29.1392C37.3711 29.046 37.5171 28.9622 37.666 28.8839C37.7406 28.8443 37.8164 28.8078 37.8927 28.772C37.9713 28.7387 38.0528 28.708 38.1334 28.6761C38.4585 28.5596 38.8017 28.467 39.1538 28.4457C39.8559 28.384 40.5816 28.5157 41.2223 28.8273C41.5411 28.9855 41.8404 29.1829 42.1092 29.415C42.3741 29.6517 42.6082 29.9211 42.799 30.2173C42.9413 30.4382 42.8777 30.7326 42.6567 30.8749C42.459 31.0023 42.2028 30.9647 42.049 30.7975L42.0335 30.7805Z" fill="#AB5C43"/>
<path d="M42.5804 41.1445C38.5355 41.1445 33.8969 39.9873 30.7374 36.1349C30.571 35.9318 30.6006 35.6325 30.8034 35.4661C31.0063 35.2994 31.3059 35.3292 31.4723 35.5321C36.0816 41.1529 44.1394 40.6189 48.1737 39.4172C54.9884 37.3871 57.038 29.2232 56.4131 26.1868C56.1804 25.0552 55.7216 25.0793 55.5706 25.0864C55.0946 25.11 54.6843 24.9441 54.4708 24.6414C53.9747 23.9387 53.6344 23.9074 53.2137 24.0908C52.5211 24.3923 52.3957 25.2302 52.2485 26.5725C52.0255 28.6043 51.7202 31.3873 47.7906 32.3453C44.585 33.1264 42.9012 31.9881 42.0528 30.8946C41.8918 30.6874 41.9294 30.389 42.1368 30.228C42.344 30.0674 42.6427 30.1047 42.8034 30.3121C43.787 31.5792 45.389 31.9528 47.5654 31.422C50.8482 30.6217 51.0798 28.5104 51.3039 26.4686C51.4568 25.0741 51.6014 23.7568 52.8341 23.2193C54.2077 22.6208 54.9899 23.7289 55.2472 24.0933C55.2656 24.108 55.3735 24.1447 55.5224 24.1375C56.0535 24.1103 56.9981 24.3157 57.3439 25.9952C57.6799 27.6281 57.3737 30.6148 55.9322 33.6064C54.7792 35.9989 52.5446 39.1067 48.4448 40.3276C46.9178 40.7827 44.8415 41.1445 42.5804 41.1445Z" fill="#AB5C43"/>
<path d="M28.1704 36.0643C28.6496 36.0149 29.115 35.9521 29.5293 35.8304C29.9477 35.7142 30.3161 35.5381 30.645 35.299C30.6894 35.2703 30.7141 35.2388 30.7514 35.2104C30.7853 35.1811 30.8231 35.1547 30.8498 35.118C30.8791 35.0833 30.9107 35.0506 30.9428 35.0178L31.0231 34.9034C31.127 34.7464 31.2182 34.5671 31.2848 34.3645C31.418 33.9622 31.4828 33.487 31.5141 33.0104L31.5152 32.9912C31.5218 32.8939 31.6056 32.8205 31.7029 32.8268C31.7686 32.8311 31.8237 32.8713 31.8504 32.9267C32.0874 33.4222 32.1826 33.9619 32.1261 34.5366C32.0971 34.823 32.0111 35.1148 31.8727 35.3911C31.7399 35.6709 31.5155 35.9168 31.2794 36.1145C30.8194 36.4829 30.2444 36.7056 29.6794 36.7432C29.3968 36.7636 29.1164 36.7452 28.847 36.6898C28.5761 36.6316 28.3225 36.5461 28.0754 36.3974C27.9908 36.3466 27.9635 36.2367 28.0143 36.1521C28.0442 36.1025 28.0947 36.0723 28.148 36.0666L28.1704 36.0643Z" fill="#AB5C43"/>
<path d="M38.6926 33.1569C38.7509 32.9308 38.8364 32.7177 38.9454 32.5125C38.9965 32.4078 39.0608 32.3113 39.1213 32.2103C39.1887 32.1151 39.2553 32.0172 39.3282 31.9237C39.6237 31.5541 40.0022 31.2307 40.4429 31.0044C40.55 30.9398 40.6653 30.8956 40.7812 30.8494C40.8972 30.8046 41.0119 30.7493 41.1345 30.7272L41.4994 30.6405C41.6223 30.6227 41.7462 30.617 41.8702 30.6055C41.9321 30.6012 41.9941 30.5949 42.0564 30.5926C42.1181 30.5917 42.1789 30.5989 42.24 30.6021C42.3625 30.609 42.4848 30.6199 42.6067 30.6328C42.8472 30.6678 43.0793 30.7355 43.3086 30.8046C43.5582 30.8801 43.6997 31.1438 43.6242 31.3934C43.5605 31.6041 43.3631 31.7378 43.1531 31.7292L43.0744 31.7257C42.8724 31.7174 42.677 31.6795 42.4833 31.6603C42.2905 31.6606 42.096 31.6187 41.9075 31.6359L41.6217 31.6396L41.3396 31.6703C41.2432 31.6752 41.1531 31.7022 41.059 31.72C40.9655 31.7392 40.8699 31.7556 40.781 31.7917C40.412 31.9019 40.0539 32.0844 39.7236 32.3289C39.3916 32.5696 39.0843 32.8726 38.8169 33.2112L38.8126 33.2166C38.7893 33.2462 38.746 33.2514 38.7164 33.2278C38.6944 33.2106 38.686 33.1825 38.6926 33.1569Z" fill="#AB5C43"/>
<path d="M24.8465 29.0071C25.5254 31.0952 27.5207 32.1921 29.3038 31.457C31.0868 30.7222 31.982 28.4336 31.3031 26.3455C30.6245 24.2575 28.6289 23.1608 26.8459 23.8957C25.0631 24.6308 24.1679 26.9191 24.8465 29.0071Z" fill="#AB5C43"/>
<path d="M25.9428 27.0209C25.9951 27.7825 26.4496 28.3543 26.9583 28.2984C27.4671 28.2421 27.8372 27.579 27.785 26.8175C27.733 26.056 27.2785 25.4838 26.7698 25.5401C26.2611 25.5963 25.8909 26.2591 25.9428 27.0209Z" fill="white"/>
<path d="M29.3195 28.7457C29.3677 29.1253 29.6113 29.404 29.8641 29.3681C30.1166 29.3325 30.2825 28.9956 30.2346 28.6163C30.1864 28.2367 29.9428 27.9581 29.69 27.994C29.4375 28.0295 29.2716 28.3664 29.3195 28.7457Z" fill="white"/>
<path d="M47.7481 24.9417C47.3981 25.1179 47.0446 25.3116 46.7235 25.5237C46.3998 25.7354 46.0994 25.967 45.8257 26.2175C45.6853 26.3394 45.5628 26.4766 45.4349 26.6071L45.2604 26.8175C45.2326 26.8533 45.2001 26.8855 45.174 26.9225L45.096 27.0338C44.8742 27.3216 44.7158 27.649 44.5608 27.9793L43.7632 27.3474C43.7953 27.3268 43.8154 27.3153 43.8372 27.3024C43.8596 27.2889 43.8808 27.2768 43.9015 27.2659C43.9436 27.2436 43.9858 27.2212 44.0274 27.2019C44.1109 27.1606 44.1947 27.1253 44.2785 27.0898C44.4464 27.0209 44.6188 26.9669 44.7921 26.9199C45.139 26.8272 45.4977 26.781 45.8546 26.7836C46.2107 26.7876 46.5665 26.8295 46.902 26.9354C47.2405 27.024 47.5539 27.1836 47.842 27.3606C47.9283 27.4137 47.9553 27.5265 47.9022 27.6128C47.8632 27.6765 47.7915 27.7081 47.7217 27.6989L47.6999 27.6958C47.5421 27.6748 47.3935 27.6378 47.2414 27.6212C47.0888 27.6074 46.9413 27.5847 46.7915 27.5847C46.4942 27.5721 46.2015 27.5942 45.9172 27.6424C45.6325 27.6866 45.3548 27.7641 45.0888 27.8653C44.9554 27.9153 44.8263 27.9744 44.7 28.0352C44.6377 28.0673 44.5752 28.0983 44.5169 28.1333C44.4865 28.15 44.459 28.1675 44.4314 28.185C44.4168 28.1936 44.4033 28.2016 44.3916 28.2097L44.3634 28.2286L44.3525 28.2358C44.1089 28.3982 43.7795 28.3322 43.6168 28.0886C43.517 27.9385 43.5046 27.7529 43.5657 27.5968C43.7356 27.1733 43.933 26.7506 44.22 26.3879C44.3485 26.1957 44.5164 26.0367 44.6702 25.8674C44.8415 25.7159 45.007 25.5578 45.1964 25.4321C45.5643 25.1681 45.9648 24.959 46.3832 24.8146C46.8047 24.6737 47.2291 24.5816 47.6833 24.5837C47.7851 24.5839 47.8675 24.6669 47.8672 24.769C47.8669 24.8407 47.8256 24.9027 47.7656 24.9331L47.7481 24.9417Z" fill="#AB5C43"/>
<path d="M56.9236 43.659C56.4986 44.8483 55.2869 45.5026 54.2172 45.1204C53.1472 44.7382 52.6244 43.4642 53.0494 42.2748C53.4743 41.0855 54.6861 40.431 55.7561 40.8132C56.8258 41.1954 57.3486 42.4696 56.9236 43.659Z" fill="white"/>
<path d="M55.2558 39.4611C55.2294 39.8221 54.9445 40.0958 54.6197 40.072C54.2948 40.0482 54.053 39.736 54.0794 39.375C54.1058 39.0138 54.3904 38.7403 54.7155 38.7639C55.0403 38.7877 55.2822 39.0999 55.2558 39.4611Z" fill="white"/>
<path d="M57.0009 39.7807C56.9111 40.1314 56.5826 40.3503 56.2669 40.2697C55.9513 40.1888 55.7682 39.839 55.858 39.4881C55.9479 39.1374 56.2764 38.9185 56.592 38.9991C56.9077 39.08 57.0907 39.4298 57.0009 39.7807Z" fill="white"/>
<path d="M58.0759 40.8935C57.9646 41.1629 57.6777 41.3003 57.4352 41.1999C57.1927 41.0998 57.0863 40.8002 57.1979 40.5305C57.3092 40.2611 57.5959 40.1236 57.8383 40.224C58.0808 40.3242 58.1873 40.6237 58.0759 40.8935Z" fill="white"/>
<path d="M29.6044 68.3436C29.4762 69.4644 28.5548 70.2799 27.5465 70.1645C26.5382 70.0492 25.8246 69.0472 25.9529 67.9261C26.0809 66.8051 27.0022 65.9899 28.0105 66.1049C29.0188 66.2203 29.7324 67.2226 29.6044 68.3436Z" fill="white"/>
<path d="M26.0622 65.6725C26.1818 66.0585 25.9973 66.4587 25.6501 66.5663C25.3029 66.6742 24.9245 66.4484 24.8048 66.0625C24.6851 65.6765 24.8694 65.2763 25.2168 65.1687C25.564 65.0608 25.9425 65.2866 26.0622 65.6725Z" fill="white"/>
<path d="M27.9809 64.3952C28.0414 64.8844 27.7338 65.3251 27.2937 65.3796C26.8538 65.4342 26.4481 65.0818 26.3872 64.5926C26.3267 64.1034 26.6343 63.6626 27.0745 63.6081C27.5143 63.5536 27.9203 63.9059 27.9809 64.3952Z" fill="white"/>
<path d="M29.6027 64.9613C29.5961 65.3211 29.3284 65.6083 29.0047 65.6023C28.681 65.5965 28.4239 65.3001 28.4305 64.9403C28.4369 64.5805 28.7046 64.2933 29.0282 64.2993C29.3519 64.305 29.6093 64.6014 29.6027 64.9613Z" fill="white"/>
<path d="M52.783 67.7855C52.4949 68.8601 51.6536 69.4601 50.9044 69.1258C50.1549 68.7912 49.7811 67.6492 50.0691 66.5744C50.3575 65.4998 51.1985 64.8998 51.948 65.2344C52.6975 65.5687 53.0713 66.711 52.783 67.7855Z" fill="white"/>
<path d="M50.5878 64.4155C50.6142 64.8332 50.3996 65.1971 50.1081 65.2278C49.8168 65.2585 49.5592 64.9446 49.5325 64.5268C49.5061 64.1087 49.721 63.7452 50.0122 63.7145C50.3038 63.6838 50.5614 63.9977 50.5878 64.4155Z" fill="white"/>
<path d="M52.2968 63.5882C52.2586 64.1006 51.9378 64.48 51.5806 64.4355C51.2234 64.391 50.9648 63.94 51.003 63.4275C51.0412 62.9153 51.362 62.536 51.7192 62.5804C52.0764 62.6246 52.335 63.076 52.2968 63.5882Z" fill="white"/>
<path d="M53.5188 64.5048C53.4528 64.8571 53.2 65.0809 52.9541 65.0043C52.7082 64.9274 52.5624 64.5796 52.6284 64.227C52.6947 63.8744 52.9475 63.6508 53.1934 63.7274C53.4393 63.8041 53.5851 64.1521 53.5188 64.5048Z" fill="white"/>
<path d="M28.7688 62.6261C28.3177 62.4359 27.8603 62.2875 27.4035 62.2227C27.1754 62.1934 26.9488 62.1831 26.7261 62.1963C26.5037 62.2106 26.2865 62.2505 26.0768 62.3139C25.2357 62.5693 24.5511 63.2815 24.1583 64.1661C24.1092 64.276 24.0636 64.3885 24.0188 64.5104L23.9904 64.5856L23.9583 64.6783C23.9388 64.7362 23.9204 64.7945 23.9026 64.8536C23.8326 65.0895 23.777 65.3331 23.7362 65.5801C23.6536 66.0748 23.6189 66.5795 23.6519 67.0842C23.7127 68.1072 23.9528 69.1318 24.3196 70.1149C24.333 70.1499 24.3155 70.1892 24.2802 70.2027C24.249 70.2147 24.2137 70.2012 24.197 70.1731C23.929 69.7109 23.7124 69.2202 23.5259 68.716C23.3368 68.2136 23.2014 67.6825 23.1052 67.1497C23.0128 66.6065 22.9853 66.0487 23.0278 65.4958C23.0481 65.2189 23.0852 64.942 23.1411 64.6657C23.1552 64.5965 23.1704 64.5274 23.187 64.4582L23.2108 64.3615L23.2421 64.2479C23.2774 64.1185 23.3219 63.9827 23.3707 63.8479C23.5669 63.3122 23.8493 62.7897 24.2504 62.3432C24.6487 61.8979 25.1675 61.5306 25.7557 61.3358C26.341 61.1346 26.9711 61.1056 27.5571 61.1986C28.145 61.2933 28.6927 61.5025 29.1891 61.7739C29.4196 61.8999 29.5045 62.1888 29.3785 62.4192C29.2606 62.635 29.0001 62.7231 28.7783 62.6301L28.7688 62.6261Z" fill="#AB5C43"/>
<path d="M48.3534 68.7524C48.0977 68.3303 47.9537 67.856 47.8426 67.382C47.7316 66.9063 47.6727 66.4196 47.6435 65.9307C47.595 64.9534 47.6727 63.9554 47.9729 62.9833C48.1267 62.4998 48.3321 62.0189 48.6328 61.5782C48.9301 61.1377 49.3252 60.7354 49.8084 60.4525C50.2885 60.1664 50.8445 60.0109 51.3843 59.9828C51.926 59.9512 52.4517 60.0296 52.9472 60.165C53.2006 60.2341 53.3498 60.4953 53.2806 60.7486C53.2164 60.9842 52.9854 61.13 52.7495 61.0929L52.7289 61.0898C52.2956 61.0229 51.8692 60.9828 51.4603 61.0149C51.3599 61.0293 51.258 61.0376 51.1585 61.0542L50.8666 61.1205L50.5877 61.2189C50.5002 61.2642 50.4107 61.3041 50.3215 61.3466C49.6311 61.7282 49.1114 62.4479 48.78 63.2702C48.4469 64.0954 48.2727 65.0113 48.2093 65.9333C48.1763 66.3952 48.1789 66.8612 48.2096 67.3261C48.2417 67.7906 48.3166 68.254 48.4744 68.691L48.4756 68.6942C48.4885 68.7295 48.4701 68.7685 48.4348 68.7814C48.4039 68.7926 48.37 68.7797 48.3534 68.7524Z" fill="#AB5C43"/>
<path d="M50.7831 72.4058C50.5297 72.4058 49.8525 72.3077 49.0726 72.1966C46.9536 71.8951 43.1812 71.3582 38.9171 71.3582C36.4865 71.3582 33.8957 71.5327 31.3621 72.0248C31.3862 71.9679 31.4094 71.9108 31.4318 71.8535L31.5288 71.8245L34.679 69.9551C35.8414 69.966 37.0698 70.0208 38.2939 70.0756C39.6614 70.1367 41.0238 70.1981 42.2823 70.1981C42.9178 70.1981 43.5267 70.1826 44.0969 70.1433C46.3444 69.9889 47.9602 68.9588 48.2726 68.7456C48.2856 68.7614 48.3051 68.7709 48.3254 68.7709C48.3332 68.7709 48.3409 68.7695 48.3487 68.7669C48.3513 68.7657 48.3538 68.7646 48.3564 68.7634C48.5449 69.125 49.658 71.1106 51.3784 71.133C51.3902 71.1332 51.4023 71.1332 51.414 71.1332C52.9735 71.1332 53.9744 69.7864 54.568 68.0358C54.461 68.5413 54.3141 69.0251 54.1327 69.4716C53.3982 71.279 52.1902 72.3481 50.8183 72.4049C50.8077 72.4055 50.796 72.4058 50.7831 72.4058Z" fill="#878AB5"/>
<path d="M50.7569 72.8817C50.2643 72.8817 48.7731 72.6191 46.6661 72.3563C44.5591 72.0938 41.8367 71.8309 38.8809 71.8309C36.3671 71.8309 33.6848 72.0209 31.0691 72.5623C31.1649 72.3873 31.2502 72.208 31.3271 72.0263C33.8607 71.5342 36.4514 71.3598 38.8821 71.3598C43.1462 71.3598 46.9186 71.8966 49.0376 72.1982C49.8175 72.3093 50.4947 72.4074 50.748 72.4074C50.761 72.4074 50.7727 72.4071 50.7833 72.4065C52.1552 72.3497 53.3632 71.2806 54.0977 69.4732C54.2791 69.0267 54.426 68.5429 54.533 68.0373C54.8423 67.1249 55.0406 66.1028 55.1496 65.1049C55.5559 68.7185 53.7623 72.7583 50.8031 72.8808C50.7888 72.8814 50.7736 72.8817 50.7569 72.8817Z" fill="#AB5C43"/>
<path d="M31.5085 71.8777C31.5513 71.7695 31.5912 71.6605 31.6288 71.5508C31.7777 71.1345 31.875 70.707 31.9565 70.2786C31.9682 70.2097 31.9794 70.1411 31.99 70.0723C32.7188 70.0034 33.5142 69.9773 34.3489 69.9773C34.4835 69.9773 34.6192 69.9779 34.7558 69.9793L31.6055 71.8487L31.5085 71.8777Z" fill="#7D87B4"/>
<path d="M30.3694 72.7189C30.118 72.7192 31.398 70.1057 31.398 70.1057C31.557 70.0854 31.7197 70.0673 31.8861 70.0515C31.8755 70.1204 31.8643 70.189 31.8525 70.2578C31.7711 70.6862 31.6738 71.1138 31.5249 71.5301C31.4873 71.6397 31.4474 71.7487 31.4046 71.8569C31.3823 71.9143 31.359 71.9714 31.3349 72.0282C31.258 72.2099 31.1728 72.3892 31.077 72.5642C30.844 72.6124 30.6115 72.6635 30.38 72.7174C30.3763 72.7183 30.3728 72.7189 30.3694 72.7189Z" fill="#AB5C43"/>
<path d="M48.4153 68.7956C48.395 68.7956 48.3755 68.7862 48.3625 68.7704C48.399 68.7457 48.4176 68.7319 48.4176 68.7319C48.4176 68.7319 48.4274 68.752 48.4463 68.7882C48.4437 68.7893 48.4412 68.7905 48.4386 68.7916C48.4308 68.7942 48.4231 68.7956 48.4153 68.7956Z" fill="#AB5C43"/>
</svg>
