<svg width="75" height="75" viewBox="0 0 75 75" fill="none" xmlns="http://www.w3.org/2000/svg">
<path d="M42.4309 44.6592C42.9176 45.4587 43.3172 46.3389 43.645 47.2386C43.9894 48.1834 44.2544 49.1505 44.4596 50.0697C45.0704 52.8109 45.1378 55.1163 45.1378 55.1163C47.1035 59.2693 53.1155 57.1749 53.1155 57.1749C53.7966 52.9277 50.9284 47.4633 49.3429 44.8391C48.7622 43.8778 48.3534 43.2983 48.3534 43.2983L43.9969 44.3L42.4309 44.6592Z" fill="#60547B"/>
<path d="M52.5806 56.7068C51.36 57.0424 47.2439 57.9171 45.7392 54.9603C45.6997 54.0536 45.3913 48.9509 43.3536 45.0568L48.0939 43.9673C49.0959 45.4831 53.1022 51.8918 52.5806 56.7068ZM49.9361 58.2984C51.2223 58.2984 52.453 58.0363 53.3196 57.7343C53.5276 57.662 53.679 57.4812 53.7139 57.2639C54.6726 51.2897 49.0878 43.2844 48.8495 42.9465C48.7091 42.748 48.463 42.6532 48.2259 42.7082L42.3046 44.0691C42.1171 44.1121 41.9619 44.2425 41.887 44.4195C41.8123 44.5968 41.8271 44.799 41.9271 44.9632C44.3385 48.9355 44.5454 55.066 44.5471 55.1274C44.5495 55.2099 44.5689 55.2912 44.6044 55.3659C45.6738 57.6254 47.8757 58.2984 49.9361 58.2984Z" fill="#5E3721"/>
<path d="M31.9763 73.7284C50.6216 73.7284 48.638 58.4773 45.8026 49.3965C44.6024 45.5466 43.2479 42.8065 43.2479 42.8065L15.5843 43.1762C14.9633 44.4356 14.1391 46.5643 13.4931 49.1312C11.1305 58.5086 11.1305 73.7284 31.9763 73.7284Z" fill="white"/>
<path d="M13.5006 49.1315C15.3119 49.6197 16.6219 49.9638 16.8913 50.0358C16.9256 50.0448 16.9436 50.0492 16.9436 50.0492C31.5955 54.2693 41.0032 51.479 44.3925 50.0701C45.3311 49.681 45.8086 49.3965 45.8086 49.3965C45.5183 48.4637 45.219 47.5971 44.9313 46.8186C44.5631 45.8172 44.2129 44.9608 43.9298 44.3005C43.5242 43.3514 43.2548 42.8065 43.2548 42.8065L15.5903 43.1762C15.4735 43.4127 15.3494 43.6807 15.2207 43.9771C14.9106 44.6882 14.5752 45.5594 14.2474 46.5535C13.987 47.3425 13.7325 48.2079 13.5006 49.1315Z" fill="#60547B"/>
<path d="M32.0632 73.0983C34.9283 73.0983 37.3949 72.7286 39.4524 71.9943C39.3083 71.5075 39.108 70.743 38.9558 69.8209C37.1805 70.2934 35.0977 70.5532 32.6628 70.5532C29.3217 70.5532 26.5159 70.1623 24.1699 69.4669C24.1028 70.5916 23.9409 71.5241 23.8299 72.062C26.1942 72.7516 28.9419 73.0983 32.0632 73.0983Z" fill="#B2B2D4"/>
<path d="M42.8676 43.4043C43.9527 45.7521 50.0268 59.6973 45.1331 67.5706C42.8426 71.2557 38.4147 73.1243 31.9723 73.1243C23.8273 73.1243 18.2309 70.7646 15.3385 66.1114C10.7412 58.7147 14.1918 47.58 15.9613 43.765L42.8676 43.4043ZM31.9723 74.3218C38.8575 74.3218 43.6281 72.2626 46.1514 68.2012C48.5494 64.3414 48.8729 58.8353 47.1124 51.8362C45.816 46.6823 43.864 42.7023 43.7815 42.5352C43.6792 42.3282 43.4677 42.2033 43.2363 42.2015L15.5733 42.5723C15.3484 42.5755 15.1441 42.7043 15.0444 42.9062C14.0311 44.9582 12.6516 48.8941 12.0983 53.2325C11.4101 58.6246 12.1791 63.2967 14.3214 66.7435C17.4468 71.7721 23.3856 74.3218 31.9723 74.3218Z" fill="#5E3721"/>
<path d="M40.1486 72.3639C40.1486 72.3639 35.5472 59.5571 47.6584 59.5588H49.3677C52.4914 59.5588 55.1954 61.804 55.6868 64.8885C55.8191 65.7187 55.8348 66.644 55.672 67.6632C55.6075 68.0668 55.525 68.444 55.427 68.7965C54.5785 71.8536 51.5891 73.8062 48.4412 73.4092L40.1486 72.3639Z" fill="#60547B"/>
<path d="M47.7351 66.4508C47.7351 69.1081 49.1994 71.262 51.0061 71.262C52.8125 71.262 54.2769 69.1081 54.2769 66.4508C54.2769 63.7935 52.8125 61.6393 51.0061 61.6393C49.1994 61.6393 47.7351 63.7935 47.7351 66.4508Z" fill="white"/>
<path d="M49.2521 72.8781C51.8257 72.8781 54.1641 71.1609 54.8601 68.6536C54.8674 68.6277 54.8744 68.6018 54.8813 68.576C54.4725 68.9622 54.0142 69.2929 53.5199 69.56C52.9198 70.6055 52.0221 71.2696 51.0192 71.2696C50.2384 71.2696 49.5215 70.8674 48.9592 70.1958L45.3688 69.743C42.6394 69.399 40.5488 67.1134 40.5015 64.3631C40.4989 64.2126 40.4989 64.0609 40.5015 63.9083C39.2705 66.8446 40.2611 70.6782 40.6119 71.8348L48.5262 72.8324C48.7694 72.863 49.0118 72.8781 49.2521 72.8781Z" fill="#433B78"/>
<path d="M51.0179 71.2521C52.0208 71.2521 52.9185 70.5881 53.5186 69.5425C52.5962 70.0403 51.548 70.3164 50.4585 70.3161C50.1906 70.3161 49.9194 70.2995 49.6477 70.2652L48.9578 70.1783C49.5202 70.8499 50.2371 71.2521 51.0179 71.2521Z" fill="#B2B2D4"/>
<path d="M40.1547 72.3583H40.1533H40.1547ZM40.1547 72.3583H40.1533H40.1547ZM49.3741 60.1522C52.2473 60.1522 54.6561 62.1814 55.1013 64.977C55.2335 65.8055 55.2286 66.6756 55.0868 67.5631C55.0278 67.9325 54.9502 68.2916 54.856 68.6308C54.0952 71.3723 51.3708 73.1688 48.5221 72.8096L40.6078 71.812C40.2114 70.5043 38.9967 65.775 41.0995 62.7894C42.3322 61.0394 44.5402 60.1522 47.6619 60.1522H47.6645H49.3741ZM49.2462 74.0528C52.3505 74.0528 55.1696 71.9791 56.0103 68.951C56.1164 68.5686 56.2036 68.1652 56.2695 67.752C56.4311 66.7392 56.436 65.7425 56.2843 64.7887C55.7456 61.4081 52.8395 58.9546 49.3741 58.9546H47.6619C44.1258 58.9546 41.5877 60.0138 40.1181 62.1033C37.3144 66.0889 39.4968 72.2985 39.591 72.5609C39.6674 72.773 39.8563 72.9244 40.0798 72.9526L48.3724 73.9979C48.665 74.0348 48.9568 74.0528 49.2462 74.0528Z" fill="#5E3721"/>
<path d="M23.1155 72.4203C23.1155 72.4203 26.61 58.9523 14.2783 60.0801L12.5379 60.2391C9.3575 60.5297 6.81269 63.0669 6.59939 66.2534C6.54185 67.111 6.61189 68.0548 6.87227 69.0775C6.97543 69.4823 7.09487 69.8586 7.22709 70.2085C8.37555 73.2424 11.6007 74.9526 14.7691 74.2557L23.1155 72.4203Z" fill="#60547B"/>
<path d="M14.7699 67.0762C15.0172 69.7817 13.7264 72.1111 11.8869 72.2791C10.0476 72.4471 8.35605 70.3899 8.10904 67.6844C7.86203 64.9786 9.15288 62.6491 10.9921 62.4812C12.8316 62.3132 14.5229 64.3704 14.7699 67.0762Z" fill="white"/>
<path d="M13.3563 73.8004C13.7788 73.8004 14.2066 73.755 14.6326 73.6615L22.607 71.908C22.8378 70.7918 23.4236 67.2493 22.276 64.4377C22.0982 67.152 20.1305 69.5088 17.3707 70.1155L14.0479 70.8464C13.5298 71.6717 12.7966 72.2114 11.946 72.2889C11.8757 72.2956 11.8053 72.2985 11.7356 72.2985C10.6293 72.2988 9.59589 71.5046 8.92257 70.2664C8.41372 69.981 7.94237 69.6282 7.52419 69.2155C7.60033 69.4817 7.68577 69.7404 7.77934 69.9871C8.65841 72.3102 10.9257 73.8004 13.3563 73.8004Z" fill="#433B78"/>
<path d="M11.7316 72.2932C11.8014 72.2932 11.8717 72.2903 11.942 72.2836C12.7926 72.206 13.5258 71.6663 14.0439 70.841L13.5595 70.9474C13.085 71.052 12.6092 71.1023 12.1393 71.1023C10.9967 71.1023 9.88862 70.8041 8.91859 70.261C9.59191 71.4992 10.6253 72.2935 11.7316 72.2932Z" fill="#B2B2D4"/>
<path d="M22.6151 71.9104L14.6406 73.6639C11.7648 74.2959 8.81929 72.7165 7.78736 69.9895C7.65978 69.6524 7.54703 69.2935 7.45258 68.9227C7.22562 68.0314 7.1396 67.1445 7.19685 66.2866C7.38749 63.4387 9.70707 61.0921 12.5922 60.8286L14.3326 60.6699C17.5176 60.3787 19.8529 61.0782 21.2739 62.7494C23.7019 65.6046 22.8955 70.5527 22.6151 71.9104ZM13.3678 75.0001C13.8746 75.0001 14.3869 74.946 14.8978 74.8336L23.2442 72.9984C23.4642 72.9499 23.6386 72.7819 23.6952 72.564C23.7667 72.2882 25.4098 65.7691 22.189 61.9767C20.5009 59.989 17.8201 59.148 14.2239 59.4773L12.4832 59.6359C8.9611 59.9576 6.23525 62.721 6.0019 66.2067C5.93622 67.191 6.03357 68.2043 6.29192 69.2183C6.39741 69.6327 6.52382 70.0348 6.66708 70.4135C7.7243 73.2071 10.4499 75.0001 13.3678 75.0001Z" fill="#5E3721"/>
<path d="M16.7595 64.2448C20.6399 63.026 21.3243 57.5708 18.5978 53.9555C17.547 52.5617 17.0663 51.1814 16.8748 50.0152C16.6862 48.8818 16.7685 47.949 16.8629 47.3937C16.9213 47.0374 16.9856 46.8354 16.9856 46.8354L17.5412 44.9445L15.2042 43.9564L10.8672 42.1256C10.4226 42.8292 10.0213 43.5208 9.66209 44.1991C2.5031 57.6755 11.5379 65.887 16.7595 64.2448Z" fill="#60547B"/>
<path d="M18.7353 61.7169C18.8298 61.6658 18.9213 61.6114 19.0102 61.5542C19.1093 61.3632 19.1965 61.1651 19.2715 60.9611C19.5845 60.1125 19.6894 59.1715 19.6156 58.2436C19.542 57.3143 19.2904 56.3939 18.8853 55.5486C18.6822 55.126 18.4427 54.7204 18.164 54.3432L17.715 53.6838C17.57 53.4594 17.4471 53.2203 17.3131 52.989C17.2431 52.8747 17.1963 52.7478 17.1382 52.6272L16.9725 52.2607C16.8734 52.012 16.7912 51.7556 16.7037 51.5028C16.5651 50.9847 16.4471 50.4607 16.4134 49.9275C16.3649 49.3968 16.3817 48.8624 16.4547 48.3396C16.493 48.0932 16.5381 47.8494 16.5994 47.6096C16.1783 48.2315 15.5059 49.7072 16.3742 52.0431C16.3742 52.0431 17.196 53.9947 17.9225 54.7212C17.9225 54.7212 20.0924 58.1152 18.7353 61.7169Z" fill="#BFBBCA"/>
<path d="M15.2303 63.7925C15.2477 63.7925 15.2649 63.7919 15.2823 63.7911L15.6121 63.7902C15.7214 63.7861 15.8277 63.7658 15.9359 63.7556L16.098 63.7376C16.1518 63.7306 16.2023 63.7132 16.2549 63.7018L16.5679 63.6272C16.9867 63.499 17.3793 63.3055 17.7297 63.0523C17.9817 62.8719 18.2104 62.66 18.4144 62.4235C18.5365 62.1846 18.6419 61.9452 18.7314 61.7071C18.4946 61.8356 18.24 61.9437 17.9683 62.0291C17.5632 62.1564 17.1328 62.2189 16.6885 62.2189C12.0932 62.2189 6.00771 55.5391 10.8474 45.0286C10.6172 44.8964 10.3914 44.7613 10.1706 44.6229C10.0956 44.7679 10.0201 44.9127 9.94363 45.0565C9.73236 45.5023 9.52865 45.9513 9.32348 46.3991L9.05235 47.0846L8.91664 47.4275L8.84863 47.5987L8.79051 47.7731L8.55978 48.4708C8.522 48.5873 8.48103 48.703 8.44586 48.8201L8.35171 49.174L8.1634 49.882C8.10818 50.1194 8.06605 50.3591 8.01635 50.5974C7.90592 51.0726 7.8635 51.5561 7.79317 52.0359C7.7676 52.2765 7.75742 52.518 7.73766 52.7589L7.71122 53.1204L7.70947 53.4816C7.68332 54.4459 7.78358 55.4063 7.97741 56.3403C8.17357 57.2743 8.47521 58.1836 8.89397 59.0342C9.31622 59.8819 9.8515 60.6709 10.4902 61.3605C10.6492 61.5331 10.823 61.6909 10.9878 61.8577C11.1621 62.0137 11.344 62.1605 11.5213 62.3128C11.7122 62.4459 11.8968 62.5894 12.0912 62.7158L12.3885 62.896L12.537 62.9864C12.5869 63.0154 12.6398 63.0384 12.691 63.0651C12.897 63.168 13.0999 63.2796 13.3155 63.3563C13.4219 63.3979 13.527 63.4441 13.6343 63.483L13.9603 63.5812L14.1234 63.6312C14.178 63.6449 14.2335 63.6539 14.2887 63.6655L14.6191 63.7332C14.7296 63.7518 14.8406 63.7568 14.951 63.7701C15.0443 63.7794 15.1376 63.7925 15.2303 63.7925Z" fill="#433B78"/>
<path d="M18.4417 62.4045C18.6707 62.1394 18.8686 61.843 19.0337 61.5254C18.9448 61.5826 18.8532 61.637 18.7588 61.6881C18.6693 61.9261 18.5638 62.1656 18.4417 62.4045Z" fill="#8583AF"/>
<path d="M16.8563 46.7869C16.6267 47.2728 16.5137 47.7837 16.4326 48.3068C16.3597 48.8296 16.3428 49.364 16.3914 49.8947C16.4251 50.4279 16.5431 50.9519 16.6817 51.47C16.7691 51.7228 16.8514 51.9791 16.9505 52.2279L17.1161 52.5943C17.1742 52.7149 17.221 52.8419 17.2911 52.9561C17.425 53.1875 17.548 53.4266 17.693 53.651L18.1419 54.3104C18.4206 54.6876 18.6601 55.0932 18.8632 55.5158C19.2683 56.3611 19.52 57.2815 19.5935 58.2108C19.6673 59.1387 19.5624 60.0797 19.2494 60.9282C18.9382 61.7751 18.4157 62.5248 17.7116 63.0293C17.3611 63.2824 16.9685 63.476 16.5497 63.6041L16.2368 63.6788C16.1842 63.6901 16.1336 63.7076 16.0798 63.7145L15.9177 63.7326C15.8096 63.7427 15.7032 63.7631 15.5939 63.7671L15.2641 63.768C15.1546 63.7744 15.0435 63.7581 14.9328 63.7471C14.8224 63.7337 14.7114 63.7288 14.601 63.7102L14.2705 63.6425C14.2153 63.6308 14.1598 63.6218 14.1052 63.6082L13.9422 63.5582L13.6161 63.46C13.5089 63.421 13.4037 63.3748 13.2973 63.3333C13.0817 63.2565 12.8788 63.145 12.6728 63.0421C12.6217 63.0153 12.5688 62.9924 12.5188 62.9633L12.3703 62.873L12.073 62.6928C11.8786 62.5664 11.6941 62.4228 11.5031 62.2897C11.3259 62.1374 11.1439 61.9907 10.9696 61.8346C10.8048 61.6678 10.631 61.51 10.4721 61.3374C9.83333 60.6478 9.29804 59.8588 8.87579 59.0111C8.45703 58.1605 8.15539 57.2513 7.95923 56.3173C7.7654 55.3833 7.66514 54.4228 7.6913 53.4586L7.69304 53.0974L7.71948 52.7359C7.73925 52.495 7.74942 52.2535 7.77499 52.0128C7.84532 51.5331 7.88775 51.0495 7.99818 50.5744C8.04787 50.3361 8.09001 50.0963 8.14522 49.8589L8.33353 49.151L8.42769 48.797C8.46285 48.6799 8.50382 48.5643 8.5416 48.4477L8.77234 47.75L8.83046 47.5756L8.89846 47.4045L9.03417 47.0616L9.3053 46.376C9.51047 45.9282 9.71418 45.4792 9.92545 45.0335C10.1574 44.597 10.3782 44.155 10.6124 43.7191L11.361 42.4343L11.3686 42.4212C11.5351 42.1353 11.4383 41.7688 11.1527 41.6023C10.8754 41.4407 10.5212 41.5282 10.3483 41.7947C9.23382 43.52 8.25565 45.3522 7.54629 47.3071L7.29172 48.0444C7.25016 48.1676 7.20541 48.2897 7.16647 48.4137L7.06098 48.7904L6.85059 49.5442C6.7884 49.7976 6.73899 50.0551 6.68262 50.3102C6.55911 50.8188 6.5039 51.343 6.42282 51.8614C6.39085 52.1221 6.37836 52.386 6.35627 52.6481L6.32692 53.0422L6.32285 53.438C6.29147 54.4931 6.39608 55.5567 6.60909 56.5988C6.82298 57.6409 7.15863 58.6653 7.63812 59.6258C8.11907 60.5845 8.73049 61.4827 9.46717 62.2732C10.2021 63.0639 11.0655 63.7474 12.0407 64.2507C12.2872 64.3719 12.5301 64.4995 12.7914 64.5922C12.9204 64.6416 13.0477 64.6947 13.1782 64.7401L13.578 64.8575L13.7783 64.9153C13.846 64.9319 13.9154 64.9435 13.984 64.9574L14.3964 65.0365C14.535 65.0583 14.6771 65.0658 14.8172 65.0804C14.9581 65.0929 15.0979 65.1097 15.2414 65.1027L15.6689 65.0961C15.8116 65.0894 15.9546 65.0644 16.0976 65.0481L16.3114 65.0199C16.3826 65.0095 16.4527 64.9874 16.5233 64.9714L16.9455 64.8642C17.491 64.6913 18.0149 64.4283 18.4796 64.0854C19.4157 63.3998 20.0843 62.4092 20.4479 61.3572C20.8164 60.3014 20.9155 59.1855 20.8126 58.1042C20.7085 57.0211 20.4005 55.9659 19.9172 54.9982C19.6749 54.5146 19.3907 54.0517 19.0623 53.6213L18.649 53.0352C18.5165 52.8379 18.4061 52.6278 18.2823 52.4249C18.164 52.2195 18.0702 52.0018 17.9618 51.7908C17.8615 51.5764 17.7801 51.3541 17.6854 51.1358C17.6128 50.9109 17.5267 50.6883 17.4622 50.4593C17.4015 50.2294 17.3303 50.0007 17.2867 49.7653C17.1795 49.298 17.117 48.8185 17.0824 48.3327C17.0455 47.8485 17.0472 47.3484 17.09 46.861L17.0908 46.8503C17.0966 46.7826 17.0467 46.7227 16.9787 46.7166C16.9261 46.712 16.8778 46.7416 16.8563 46.7869Z" fill="#5E3721"/>
<path d="M61.1919 38.9878C61.1919 38.9878 60.3759 46.8492 68.3486 50.854C68.3486 50.854 67.9778 42.3623 61.1919 38.9878Z" fill="#248943"/>
<path d="M61.3281 39.0997C67.4627 42.223 68.2575 49.67 68.3399 50.7296C64.3256 48.6721 62.6341 45.6109 61.9218 43.395C61.2462 41.2923 61.3005 39.5393 61.3281 39.0997ZM68.499 50.9725L68.4936 50.849C68.4898 50.7636 68.0427 42.2757 61.2964 38.9209L61.2026 38.8741L61.1918 38.9785C61.1898 38.9982 60.9954 40.9874 61.7835 43.4395C62.5112 45.7027 64.2474 48.8369 68.3884 50.917L68.499 50.9725Z" fill="#5E3721"/>
<path d="M67.5923 49.6977C67.5863 49.6608 67.5802 49.623 67.5737 49.5844C65.6505 47.776 64.6765 45.7182 64.1893 43.9752C63.8495 43.4416 63.4992 42.9162 63.1294 42.4045C62.7479 41.873 62.3541 41.3508 61.9487 40.839C61.9191 40.8018 61.8894 40.7646 61.8598 40.7274C61.933 41.4324 62.0864 42.3071 62.3954 43.2542C63.2852 45.9824 65.0311 48.1453 67.5923 49.6977ZM63.8492 42.3719C63.8077 42.0883 63.7785 41.8236 63.7583 41.5809C63.556 41.3766 63.3439 41.1781 63.1207 40.9858C63.3163 41.342 63.5069 41.7012 63.6921 42.0624C63.7452 42.165 63.7975 42.2685 63.8492 42.3719Z" fill="#196051"/>
<path d="M60.7514 39.354C61.1728 39.8286 61.5936 40.3383 61.9981 40.8474C62.4035 41.3592 62.7973 41.8814 63.1788 42.4129C63.5623 42.9435 63.9247 43.489 64.2763 44.0429C64.626 44.5982 64.9505 45.169 65.256 45.7534C65.2645 45.7702 65.2851 45.7772 65.302 45.7688C65.3174 45.7609 65.3243 45.7426 65.3191 45.7269C65.1034 45.1021 64.8645 44.482 64.5978 43.8734C64.3292 43.2661 64.0468 42.6625 63.7415 42.0708C63.4376 41.4783 63.1198 40.8919 62.7877 40.313C62.4529 39.7324 62.1138 39.166 61.7398 38.5912C61.5512 38.3014 61.1632 38.2192 60.8735 38.4081C60.5835 38.5967 60.5015 38.9844 60.6901 39.2744C60.7067 39.2999 60.7247 39.3238 60.7444 39.3462L60.7514 39.354Z" fill="#5E3721"/>
<path d="M61.7852 40.0247C65.9757 42.6361 67.2148 47.4856 67.57 49.7029C65.0088 48.1505 63.2629 45.9876 62.3731 43.2594C61.9497 41.9621 61.8186 40.8006 61.7852 40.0247ZM68.3308 51.4599C68.4492 51.4599 68.5673 51.4262 68.67 51.3597C68.8559 51.2393 68.9642 51.0295 68.9545 50.8084C68.9388 50.4466 68.4866 41.9087 61.4519 38.4104C61.2685 38.3195 61.0526 38.3238 60.873 38.4226C60.6937 38.5211 60.5743 38.7013 60.553 38.905C60.544 38.9905 60.345 41.0302 61.1683 43.5918C61.9282 45.9553 63.7388 49.2275 68.0506 51.3934C68.1391 51.4378 68.2351 51.4599 68.3308 51.4599Z" fill="#5E3721"/>
<path d="M60.6088 39.6831C60.6088 39.6831 67.8446 42.8632 74.095 36.4966C74.095 36.4966 65.8963 34.2535 60.6088 39.6831Z" fill="#248943"/>
<path d="M73.9688 36.5206C70.7848 39.7117 67.3555 40.3874 65.0297 40.3891H65.0194C62.8141 40.3891 61.1623 39.8018 60.752 39.6411C65.5996 34.7569 72.9335 36.275 73.9688 36.5206ZM65.0193 40.5344H65.0234C67.4006 40.5338 70.9158 39.8387 74.1621 36.5317L74.2488 36.4436L74.1294 36.4108C74.047 36.3884 65.8287 34.219 60.5721 39.617L60.4992 39.692L60.5951 39.7341C60.6131 39.7422 62.4459 40.5344 65.0193 40.5344Z" fill="#5E3721"/>
<path d="M62.5902 39.5843C62.6474 39.5381 62.7044 39.493 62.7622 39.448C62.7062 39.4689 62.6501 39.4898 62.594 39.5107C62.5516 39.527 62.5088 39.543 62.4661 39.5593C62.5068 39.5677 62.5481 39.5761 62.5902 39.5843ZM63.0921 38.4399C63.4912 38.3623 63.8912 38.2908 64.2918 38.2248C64.4938 38.1911 64.6963 38.1597 64.8989 38.1304C67.1504 37.0444 69.4955 36.7314 71.2209 36.68C70.8658 36.657 70.4846 36.6431 70.0832 36.6431C68.0198 36.6431 65.4235 37.0127 63.0921 38.4399Z" fill="#BDDBC6"/>
<path d="M60.8495 40.2539C61.4301 39.9975 62.0441 39.7529 62.6524 39.5233C63.2638 39.2937 63.8811 39.0787 64.504 38.8776C65.1265 38.6747 65.7564 38.4963 66.3914 38.3309C67.027 38.1676 67.6696 38.0334 68.3195 37.9212C68.3382 37.9183 68.3511 37.9009 68.3482 37.882C68.3456 37.8651 68.3303 37.8529 68.3136 37.8529C67.6528 37.8674 66.9893 37.9052 66.3283 37.9732C65.6679 38.0432 65.0069 38.1275 64.3502 38.2374C63.6931 38.3455 63.0377 38.469 62.385 38.6082C61.7297 38.7494 61.0872 38.8991 60.4255 39.0795C60.0919 39.1705 59.8951 39.5149 59.9861 39.8485C60.0771 40.1821 60.4211 40.3788 60.755 40.2879C60.7844 40.2797 60.8126 40.2698 60.8396 40.2582L60.8495 40.2539Z" fill="#5E3721"/>
<path d="M72.7624 36.8689C68.4048 40.6363 63.7349 39.9484 61.782 39.4172C65.5479 36.2275 70.5416 36.5292 72.7624 36.8689ZM64.9843 41.096H64.9885C67.4713 41.0951 71.1404 40.3715 74.5206 36.9282C74.6757 36.7704 74.7356 36.542 74.6779 36.3281C74.6201 36.1145 74.4535 35.9474 74.24 35.889C73.8906 35.7934 65.6234 33.6136 60.1419 39.2422C59.9992 39.3887 59.9373 39.5962 59.9765 39.797C60.0157 39.9978 60.1506 40.1666 60.338 40.2492C60.4168 40.2838 62.2961 41.096 64.9843 41.096Z" fill="#5E3721"/>
<path d="M46.41 56.6142L60.9695 40.6653C61.6274 39.9446 61.9924 39.0036 61.9924 38.0278V35.6914C61.9924 35.007 61.1506 34.6803 60.6891 35.186L43.5287 53.9839C42.8025 54.7796 42.8586 56.0132 43.6543 56.7397C44.4499 57.4659 45.6838 57.4098 46.41 56.6142Z" fill="#59E041"/>
<path d="M46.2842 56.5647C45.5859 57.3296 44.3959 57.384 43.6307 56.6856C42.8661 55.9876 42.8121 54.7973 43.5101 54.0324L60.6702 35.2345C60.9009 34.9823 61.2058 34.9788 61.415 35.0599C61.6239 35.1409 61.8471 35.3493 61.8471 35.6911V38.0275C61.8471 38.9877 61.4909 39.9068 60.8434 40.6159L46.2842 56.5647ZM44.8963 57.3209C45.4455 57.3209 45.9927 57.0995 46.3914 56.6627L60.9506 40.7138C61.6228 39.978 61.9924 39.024 61.9924 38.0275V35.6911C61.9924 35.3435 61.7913 35.05 61.4676 34.9245C61.1439 34.7986 60.7972 34.88 60.563 35.1366L43.4029 53.9345C42.6505 54.7584 42.7089 56.0408 43.5328 56.7929C43.9202 57.1465 44.4089 57.3209 44.8963 57.3209Z" fill="#5E3721"/>
<path d="M46.8728 53.2304L47.2654 53.1758L48.3043 53.1738L51.0296 50.1884C50.7041 50.0364 50.4228 49.8342 50.1822 49.6052L46.8728 53.2304ZM51.591 49.5732L57.0488 43.5947C56.7242 43.4415 56.4438 43.2384 56.2043 43.0085L50.7091 49.0283C50.9433 49.2556 51.2336 49.4529 51.591 49.5732ZM57.6077 42.9824L60.3943 39.9299C60.9516 39.3196 61.2986 38.5515 61.3916 37.7379V36.3029C61.3434 36.3095 61.2951 36.3209 61.2478 36.3374C61.1638 37.1706 60.8139 37.959 60.2446 38.5826L56.7268 42.436C56.9599 42.6633 57.2496 42.8612 57.6077 42.9824Z" fill="#3E9C50"/>
<path d="M58.4135 43.8751H58.4254C58.641 43.8743 58.8151 43.699 58.8142 43.4837C58.8136 43.2687 58.639 43.0949 58.4242 43.0949C58.421 43.0952 58.417 43.0949 58.4135 43.0949C56.3836 43.0949 55.8774 40.936 55.8567 40.8442C55.8097 40.6343 55.6019 40.5015 55.3918 40.5478C55.1817 40.5942 55.0489 40.8012 55.0948 41.0116C55.3113 42.0031 56.2833 43.8751 58.4135 43.8751Z" fill="#5E3721"/>
<path d="M52.3691 50.492H52.381C52.5963 50.4914 52.7704 50.3162 52.7695 50.1006C52.7689 49.8855 52.5943 49.7118 52.3795 49.7118H52.3691C50.327 49.7118 49.817 47.4843 49.8121 47.4619C49.7662 47.2512 49.5584 47.1178 49.3477 47.1641C49.1373 47.21 49.0039 47.4177 49.0498 47.6284C49.2663 48.62 50.2387 50.492 52.3691 50.492Z" fill="#5E3721"/>
<path d="M44.6098 53.7146L45.0123 53.4742L45.5017 53.4062L49.5913 48.926C49.5024 48.79 49.4233 48.6526 49.3548 48.5168L44.6098 53.7146Z" fill="#CDF6C6"/>
<path d="M50.1476 48.3393L55.6205 42.3442C55.5316 42.2079 55.4531 42.0698 55.3849 41.9338L49.9363 47.9022C49.9895 48.0327 50.059 48.183 50.1476 48.3393ZM56.1686 41.7438L60.9107 36.5493C61.001 36.4502 61.1059 36.3833 61.2161 36.3447C61.2292 36.2148 61.2358 36.0837 61.2358 35.9524V35.5848C61.2335 35.5845 61.2312 35.5845 61.2292 35.5845C61.1806 35.5845 61.153 35.6153 61.142 35.6272L55.9602 41.3035C56.0123 41.4346 56.0806 41.586 56.1686 41.7438Z" fill="#CDF6C6"/>
<path d="M61.2478 36.3444C61.2951 36.3278 61.3434 36.3165 61.3916 36.3098V35.7115C61.3916 35.6903 61.3916 35.6254 61.3117 35.5944C61.2954 35.5882 61.2806 35.5851 61.2675 35.5845V35.9521C61.2675 36.0834 61.2608 36.2145 61.2478 36.3444Z" fill="#C5E1CA"/>
<path d="M55.5462 42.3359L56.0942 41.7356C56.0062 41.5778 55.9379 41.4263 55.8859 41.2953L55.3105 41.9256C55.3788 42.0616 55.4572 42.1996 55.5462 42.3359Z" fill="#B2B2D4"/>
<path d="M49.6409 48.9524L50.1921 48.3486C50.1035 48.1922 50.0341 48.042 49.9809 47.9115L49.4043 48.5433C49.4729 48.679 49.5519 48.8164 49.6409 48.9524Z" fill="#B2B2D4"/>
<path d="M45.9297 56.2143C45.4366 56.7545 44.5958 56.7926 44.0556 56.2994C43.5154 55.8066 43.4773 54.9659 43.9705 54.4256L61.1305 35.6277C61.1448 35.612 61.1881 35.5644 61.2686 35.5952C61.3485 35.6263 61.3485 35.6911 61.3485 35.7123V38.0487C61.3485 38.8708 61.0434 39.6581 60.4889 40.2654L45.9297 56.2143ZM44.9489 57.8937C45.6478 57.8937 46.3444 57.6115 46.8518 57.0559L61.411 41.107C62.1758 40.2692 62.5969 39.1832 62.5969 38.0487V35.7123C62.5969 35.1407 62.2529 34.6379 61.7199 34.4313C61.1875 34.2247 60.5938 34.3636 60.2085 34.7858L43.0484 53.5838C42.0911 54.6325 42.1655 56.2643 43.214 57.2215C43.7069 57.6717 44.3288 57.8937 44.9489 57.8937Z" fill="#5E3721"/>
<path d="M52.4809 52.1854C52.4809 52.1854 55.327 60.3063 48.4668 63.1987C44.1792 65.0065 42.3252 63.314 41.5374 61.7904C41.0922 60.9291 40.9251 59.9535 40.9867 58.9858C41.4476 51.7356 50.1726 53.4091 50.1726 53.4091L52.4809 52.1854Z" fill="#60547B"/>
<path d="M41.019 61.0388C41.0798 60.9842 41.1414 60.9304 41.2044 60.8781C41.0309 60.267 40.972 59.6245 41.0126 58.9849C41.1135 57.3982 41.6104 56.2387 42.3247 55.3956C42.3244 55.3843 42.3244 55.373 42.3241 55.3613L41.5825 56.2012L40.9449 58.1883C40.9449 58.1883 41.0045 60.4539 40.8548 60.5614C40.8075 60.5957 40.8877 60.7898 41.019 61.0388Z" fill="white"/>
<path d="M41.876 62.3331C41.8551 62.2601 41.8362 62.1872 41.8187 62.1139C41.7987 62.0817 41.7792 62.0497 41.76 62.0175C41.7417 62.0349 41.7237 62.0523 41.7057 62.0701C41.8071 62.2287 41.876 62.3331 41.876 62.3331Z" fill="#BFBBCA"/>
<path d="M41.6732 62.0987C41.6912 62.081 41.7092 62.0635 41.7275 62.0461C41.6778 61.9624 41.6316 61.8784 41.5883 61.795C41.4372 61.5027 41.3184 61.1972 41.2294 60.8837C41.1664 60.936 41.1048 60.9897 41.044 61.0444C41.2231 61.3829 41.4971 61.8226 41.6732 62.0987Z" fill="#9999C7"/>
<path d="M45.3287 53.5785C45.8032 53.4457 46.2827 53.3576 46.7457 53.3024L46.8154 53.226L45.481 53.4117L45.3287 53.5785ZM48.6291 53.2292L48.6846 53.1685L48.2469 53.1693L48.1998 53.2211C48.3483 53.2213 48.4922 53.2243 48.6291 53.2292Z" fill="#BDF3B3"/>
<path d="M46.7273 53.3016C47.2262 53.242 47.7063 53.2199 48.1428 53.2199C48.1556 53.2199 48.1684 53.2199 48.1814 53.2202L48.2285 53.1685L47.1896 53.1705L46.797 53.2251L46.7273 53.3016Z" fill="#B2D7B9"/>
<path d="M44.4587 53.911C44.7519 53.7867 45.0521 53.6835 45.3541 53.5989L45.5063 53.4321L45.017 53.5001L44.6145 53.7405L44.4587 53.911Z" fill="#EBFBE8"/>
<path d="M42.3634 55.3753C42.9423 54.6924 43.6641 54.2172 44.4339 53.8906L44.5897 53.72L42.9092 54.7223L42.3628 55.341C42.3631 55.3526 42.3631 55.364 42.3634 55.3753ZM48.9868 53.2463L48.7971 53.1685H48.6852L48.6297 53.2292C48.7543 53.2336 48.8735 53.2394 48.9868 53.2463Z" fill="#9999C7"/>
<path d="M41.8375 62.1392C41.7959 61.9625 41.7642 61.785 41.7413 61.6071C41.3405 60.8042 41.1112 59.7208 41.1665 58.2661C41.1665 58.2661 41.2984 59.0597 41.7558 59.9123C41.999 58.0243 42.8778 56.4562 42.8778 56.4562C44.6022 53.6914 49.5913 53.5022 49.5913 53.5022L49.0243 53.2689C48.911 53.2619 48.7919 53.2561 48.6672 53.2517C48.5303 53.2468 48.3865 53.2439 48.238 53.2436C48.2249 53.2433 48.2121 53.2433 48.1993 53.2433C47.7628 53.2433 47.2828 53.2654 46.7838 53.3249C46.3209 53.3802 45.8414 53.4682 45.3668 53.601C45.0649 53.6856 44.7647 53.7887 44.4715 53.9131C43.7017 54.2398 42.9798 54.7149 42.4009 55.3978C41.6866 56.2409 41.1897 57.4004 41.0889 58.987C41.0482 59.6267 41.1072 60.2692 41.2807 60.8803C41.3696 61.1939 41.4884 61.4993 41.6396 61.7917C41.6829 61.8751 41.7291 61.959 41.7788 62.0427C41.7979 62.075 41.8174 62.107 41.8375 62.1392Z" fill="#BFBBCA"/>
<path d="M52.7752 58.3714C52.8308 58.1863 52.8787 58.0017 52.9197 57.8198C52.913 57.8219 52.9066 57.8239 52.8999 57.8259C52.8648 58.0076 52.8232 58.1895 52.7752 58.3714Z" fill="#597ED4"/>
<path d="M52.9903 57.8054C52.997 57.8034 53.0034 57.8013 53.0101 57.7993C53.5114 55.5614 52.9525 53.6175 52.9319 53.5466C53.1382 54.6236 53.3027 56.1972 52.9903 57.8054Z" fill="#5E3721"/>
<path d="M45.6558 63.7657C46.6726 63.7657 47.4549 63.5463 47.4549 63.5463C50.7425 62.3429 52.1856 60.288 52.7677 58.3529C52.8156 58.171 52.8572 57.9891 52.8923 57.8074C53.2047 56.1993 53.0403 54.6256 52.8339 53.5487C52.8334 53.5472 52.8334 53.5466 52.8334 53.5466C52.589 56.9737 51.2278 60.0567 46.6386 61.6219C45.978 61.8471 45.3936 61.9442 44.8767 61.9442C43.1577 61.9439 42.1851 60.8724 41.6536 59.8809C41.583 60.429 41.5658 61.0041 41.6391 61.5757C42.5393 63.3789 44.3048 63.766 45.6558 63.7657Z" fill="#433B78"/>
<path d="M41.713 61.5769C41.6398 61.0053 41.6569 60.4302 41.7275 59.8821C41.2701 59.0295 41.1382 58.2358 41.1382 58.2358C41.083 59.6906 41.3123 60.774 41.713 61.5769Z" fill="#8583AF"/>
<path d="M50.3054 53.3293C49.9483 53.1447 49.5746 53.0259 49.1944 52.9378C48.8138 52.8495 48.4261 52.7969 48.0361 52.7768C47.6458 52.7556 47.2529 52.7652 46.8615 52.8076C46.4695 52.8425 46.078 52.9056 45.6883 52.9864C44.9124 53.1593 44.1354 53.4156 43.4269 53.8407C42.721 54.2604 42.0703 54.8256 41.6048 55.5256C41.1328 56.2199 40.8245 57.0098 40.6609 57.8077C40.5711 58.2082 40.5336 58.6066 40.4961 59.012C40.4711 59.4247 40.4833 59.842 40.5397 60.2567C40.6496 61.084 40.9379 61.9102 41.4171 62.6184C41.6585 62.9726 41.9381 63.3129 42.2804 63.5951C42.3595 63.6721 42.4554 63.7305 42.5431 63.7977C42.6332 63.8627 42.7213 63.9302 42.8201 63.9816L43.1107 64.1449C43.2101 64.1932 43.3132 64.2336 43.4149 64.2774C43.6163 64.3733 43.8314 64.4178 44.0409 64.4829C44.1464 64.5134 44.2536 64.5244 44.3603 64.5454C44.4666 64.5622 44.5739 64.5855 44.6802 64.5956C44.8921 64.6067 45.1068 64.6308 45.3169 64.627C45.5253 64.6166 45.7374 64.6174 45.9429 64.5948C46.772 64.5192 47.5467 64.2879 48.2924 64.02C49.7797 63.4966 51.2406 62.5757 52.2368 61.2418C52.7363 60.5813 53.1173 59.8335 53.369 59.0565C53.6209 58.2785 53.7589 57.4759 53.8078 56.6776C53.8499 55.879 53.8112 55.0839 53.7037 54.3031C53.6508 53.9122 53.5776 53.5251 53.4898 53.1413C53.4463 52.9492 53.3974 52.7579 53.3454 52.567C53.2905 52.3726 53.2382 52.1933 53.1647 51.9823C53.0557 51.6702 52.7145 51.5052 52.4024 51.6141C52.0955 51.7208 51.9311 52.0521 52.0284 52.3598L52.0342 52.3784C52.0807 52.5243 52.1304 52.7074 52.1731 52.8762C52.2153 53.0497 52.2551 53.2244 52.2902 53.4002C52.3614 53.7521 52.4175 54.1072 52.4579 54.4632C52.5442 55.1746 52.5654 55.8909 52.5166 56.5945C52.4629 57.2972 52.3388 57.9882 52.1202 58.6412C51.9037 59.2948 51.5791 59.8998 51.1734 60.4406C50.7657 60.9808 50.2642 61.4484 49.6966 61.8343C49.4168 62.0325 49.1113 62.1982 48.8027 62.3571L48.3282 62.578L47.8295 62.7715C47.1643 63.0168 46.4834 63.2228 45.8101 63.2868C45.1391 63.358 44.4742 63.3126 43.9005 63.0743C42.7437 62.6381 41.9474 61.3973 41.7591 60.084C41.7082 59.7536 41.6928 59.4151 41.7079 59.0765C41.7358 58.7324 41.7617 58.3797 41.8326 58.0437C41.9631 57.3678 42.1941 56.7232 42.5562 56.1624C42.9113 55.596 43.4152 55.1365 43.9898 54.7733C44.5649 54.4063 45.2309 54.1653 45.9167 53.9945C46.6066 53.8239 47.3253 53.764 48.0486 53.7024C48.7739 53.6353 49.508 53.5876 50.2767 53.4789L50.2801 53.4786C50.3234 53.4725 50.3539 53.4321 50.3476 53.3888C50.3441 53.3624 50.3272 53.3409 50.3054 53.3293Z" fill="#5E3721"/>
<path d="M45.44 46.5288C46.6187 46.1004 47.7058 45.6076 48.6846 45.058C48.4681 44.7012 48.278 44.4007 48.1272 44.1682C47.1848 44.6579 46.1549 45.0929 45.0369 45.4733C45.1668 45.8029 45.302 46.1559 45.44 46.5288Z" fill="#433B78"/>
<path d="M48.6793 45.0814C48.8344 44.9942 48.987 44.9056 49.137 44.8155C48.9266 44.4691 48.7397 44.1741 48.5886 43.9408C48.4357 44.0257 48.2797 44.1096 48.1219 44.1916C48.2727 44.4241 48.4628 44.7246 48.6793 45.0814Z" fill="#5E3721"/>
<path d="M29.4137 48.8056C30.0981 48.8056 30.7941 48.7955 31.5011 48.7748C36.1533 48.6406 40.1979 48.0908 43.5227 47.1414C43.7799 47.0681 44.0377 46.9911 44.2937 46.9106C44.1525 46.5282 44.0144 46.1673 43.8822 45.8319C40.4519 46.8345 36.2792 47.3712 31.3805 47.4366C31.0582 47.4407 30.7386 47.443 30.4209 47.443C25.395 47.443 20.9856 46.9057 17.2563 45.8415L16.9968 46.7255C17.0515 46.7421 17.0889 46.7953 17.0837 46.8542L17.0829 46.865C17.068 47.0315 17.0584 47.1998 17.0532 47.3686C20.5773 48.3235 24.7266 48.8056 29.4137 48.8056Z" fill="#433B78"/>
<path d="M44.3617 46.9345C44.5561 46.8732 44.7493 46.8104 44.9405 46.7456C45.1315 46.6811 45.3201 46.6151 45.5063 46.5474C45.3683 46.1746 45.2332 45.8215 45.1033 45.4919C44.7287 45.6195 44.3445 45.7407 43.9502 45.8558C44.0824 46.1911 44.2204 46.5521 44.3617 46.9345Z" fill="#5E3721"/>
<path d="M16.7792 47.2651C16.8312 47.1064 16.8925 46.9498 16.9652 46.7958C16.9852 46.7536 17.0282 46.7251 17.0768 46.7251C17.0803 46.7251 17.084 46.7251 17.0875 46.7254C17.0962 46.7263 17.1047 46.728 17.1128 46.7304L17.3723 45.8464C16.1893 45.5087 15.0751 45.1181 14.0307 44.6746C13.2059 44.3242 12.4234 43.9409 11.6844 43.525C11.6495 43.5895 11.6149 43.654 11.5809 43.7183C11.3722 44.1109 11.1784 44.4994 10.9994 44.8821C12.0316 45.4753 13.1551 46.0047 14.3541 46.4627C15.119 46.7551 15.9338 47.0247 16.7792 47.2651Z" fill="#433B78"/>
<path d="M10.941 44.8726C11.12 44.4899 11.3139 44.1014 11.5225 43.7087C11.5565 43.6445 11.5911 43.58 11.626 43.5155C11.4124 43.3952 11.2023 43.2723 10.9959 43.1467L10.6629 43.7183C10.5289 43.9674 10.3993 44.2188 10.2697 44.4698C10.4888 44.607 10.7129 44.7413 10.941 44.8726Z" fill="#2F2976"/>
<path d="M17.0391 47.3898C17.0443 47.2209 17.0539 47.0527 17.0687 46.8862L17.0696 46.8754C17.0748 46.8164 17.0373 46.7632 16.9827 46.7467C16.9746 46.7443 16.9661 46.7426 16.9574 46.7417C16.9539 46.7414 16.9501 46.7414 16.9467 46.7414C16.8981 46.7414 16.8551 46.7699 16.8351 46.8121C16.7624 46.9661 16.7011 47.1227 16.6491 47.2814C16.7156 47.3003 16.7825 47.3192 16.8493 47.3375C16.9124 47.3552 16.9754 47.3723 17.0391 47.3898ZM10.198 44.4957C10.3276 44.2446 10.4572 43.9932 10.5912 43.7442L10.9242 43.1725C10.7682 43.0775 10.6141 42.9807 10.4622 42.8828C10.2009 43.3205 9.9539 43.7572 9.72374 44.1891C9.8795 44.2928 10.0373 44.3948 10.198 44.4957Z" fill="#5E3721"/>
<path d="M45.5637 46.6827C46.7511 46.2512 47.8467 45.7545 48.833 45.2001C48.8077 45.1579 48.7827 45.1164 48.758 45.0757C47.7793 45.6252 46.6921 46.1181 45.5135 46.5464C45.53 46.5915 45.5469 46.6371 45.5637 46.6827Z" fill="#4D4775"/>
<path d="M48.8588 45.2017C49.0358 45.1023 49.2093 45.0012 49.379 44.898L49.4412 44.8605L49.4034 44.7983C49.1796 44.4278 48.9803 44.1125 48.8199 43.8655C48.7777 43.8893 48.7359 43.9128 48.6932 43.9367C48.8443 44.17 49.0311 44.465 49.2415 44.8114C49.0916 44.9015 48.939 44.9901 48.7838 45.0773C48.8085 45.118 48.8335 45.1595 48.8588 45.2017Z" fill="#0A0D6E"/>
<path d="M29.5201 48.9683C30.2059 48.9683 30.9027 48.9581 31.6109 48.9375C36.2751 48.8027 40.3319 48.2514 43.668 47.2985C43.9287 47.2244 44.19 47.1459 44.4495 47.0643C44.4326 47.0184 44.416 46.9733 44.3992 46.928C44.1432 47.0085 43.8854 47.0855 43.6282 47.1587C40.3034 48.1081 36.2588 48.6579 31.6066 48.7922C30.8995 48.8128 30.2035 48.823 29.5192 48.823C24.8321 48.823 20.6828 48.3409 17.1587 47.386C17.1572 47.4357 17.1561 47.4856 17.1555 47.5356C20.6846 48.4879 24.835 48.9683 29.5201 48.9683Z" fill="#4D4775"/>
<path d="M44.3617 47.0732C44.5546 47.0124 44.7467 46.95 44.9368 46.8857C45.1289 46.8209 45.3186 46.7544 45.5063 46.6861C45.4895 46.6405 45.4726 46.5948 45.4561 46.5498C45.2698 46.6175 45.0812 46.6835 44.8903 46.748C44.6991 46.8128 44.5058 46.8756 44.3114 46.9369C44.3282 46.9822 44.3448 47.0273 44.3617 47.0732Z" fill="#0A0D6E"/>
<path d="M16.7229 47.4086C16.7365 47.3621 16.7508 47.3159 16.7659 47.2697C15.9205 47.0293 15.1057 46.7596 14.3408 46.4673C13.1418 46.0093 12.0183 45.4798 10.9861 44.8867C10.9652 44.9312 10.9451 44.9745 10.9248 45.0189C11.9605 45.6132 13.0871 46.1439 14.2888 46.603C15.0565 46.8965 15.8746 47.1671 16.7229 47.4086Z" fill="#4D4775"/>
<path d="M10.8064 45.0057C10.8267 44.9612 10.8468 44.9179 10.8677 44.8735C10.6396 44.7421 10.4155 44.6079 10.1964 44.4707C10.174 44.5137 10.1516 44.557 10.1295 44.6C10.3504 44.7384 10.5762 44.8735 10.8064 45.0057Z" fill="#393673"/>
<path d="M17.0669 47.5425C17.0674 47.4925 17.0686 47.4425 17.0701 47.3928C17.0064 47.3754 16.9434 47.3582 16.8803 47.3405C16.8135 47.3222 16.7466 47.3033 16.6801 47.2844C16.665 47.3306 16.6507 47.3768 16.6371 47.4233C16.7051 47.4425 16.7731 47.4617 16.8414 47.4806C16.9163 47.5015 16.9913 47.5221 17.0669 47.5425ZM10.1622 44.628C10.1842 44.585 10.2066 44.5417 10.229 44.4987C10.0683 44.3979 9.9105 44.2959 9.75473 44.1921C9.98489 43.7603 10.2319 43.3235 10.4932 42.8859C10.4525 42.8594 10.4118 42.8333 10.3714 42.8065C10.0959 43.2674 9.83639 43.7277 9.59577 44.1819L9.56497 44.2395L9.61931 44.2761C9.79687 44.3955 9.97791 44.5129 10.1622 44.628Z" fill="#0A0D6E"/>
<path d="M39.4687 10.6393C39.5835 15.3119 43.4645 19.0069 48.1374 18.8924C50.2652 18.8401 52.193 18.0049 53.6486 16.6705C55.3885 15.0777 56.4544 12.7683 56.3919 10.2237C56.2771 5.54926 52.3961 1.85425 47.7215 1.96903C45.6533 2.01986 43.7777 2.80754 42.3375 4.07677C40.5242 5.67465 39.4048 8.03493 39.4687 10.6393Z" fill="#60547B"/>
<path d="M47.8596 2.03664C52.3927 2.03664 56.1348 5.66656 56.2467 10.223C56.3062 12.6478 55.315 14.9773 53.5269 16.6142C52.0318 17.985 50.0911 18.7673 48.0627 18.8173C43.4389 18.9294 39.5824 15.2603 39.4687 10.6351C39.4077 8.14694 40.4443 5.77553 42.3129 4.12875C43.7871 2.82961 45.6827 2.08753 47.6509 2.03923C47.7207 2.03751 47.7904 2.03664 47.8596 2.03664ZM47.8538 18.9649C47.925 18.9649 47.9953 18.964 48.0665 18.9626C50.1298 18.9117 52.1038 18.1158 53.6251 16.7215C55.444 15.0563 56.4524 12.6861 56.392 10.2195C56.2763 5.51324 52.3584 1.77995 47.6472 1.8939C45.6452 1.94307 43.7165 2.69808 42.2167 4.01977C40.3158 5.69501 39.2612 8.10741 39.3234 10.6386L39.3961 10.6368L39.3234 10.6386C39.4373 15.2728 43.2439 18.9649 47.8538 18.9649Z" fill="#5E3721"/>
<path d="M52.7202 17.3597C53.048 17.1356 53.3612 16.8877 53.6571 16.6163C53.7135 16.5646 53.7695 16.512 53.8245 16.4588C52.1445 12.3881 49.2033 7.82589 44.0692 4.76416C43.7196 4.98191 43.3875 5.2243 43.0745 5.48913C44.6624 6.48656 46.1421 7.66693 47.4646 9.0069C49.8778 11.4526 51.6537 14.2967 52.7202 17.3597Z" fill="#433B78"/>
<path d="M52.7042 17.3937C53.102 17.1359 53.4766 16.8456 53.8245 16.5268C53.8155 16.5047 53.8064 16.4829 53.7974 16.4608C53.7425 16.514 53.6864 16.5666 53.6301 16.6183C53.3342 16.8898 53.0209 17.1376 52.6931 17.3617C52.6966 17.3725 52.7004 17.3829 52.7042 17.3937ZM42.0501 4.37311C42.1536 4.27218 42.2594 4.17396 42.368 4.07841C42.4206 4.03182 42.4744 3.98582 42.5282 3.94057C42.5235 3.93816 42.518 3.93552 42.5133 3.93311C42.3535 4.07393 42.1989 4.22077 42.0501 4.37311Z" fill="#5E3721"/>
<path d="M41.7082 4.73352C41.8116 4.61516 41.9183 4.49976 42.0278 4.38733C41.9148 4.49773 41.8047 4.61141 41.698 4.72791C41.7012 4.72977 41.7047 4.73166 41.7082 4.73352Z" fill="#9999C7"/>
<path d="M55.9458 8.00151C54.8976 4.5443 51.6792 2.04175 47.9156 2.04175C47.8464 2.04175 47.7767 2.04262 47.7069 2.04434C45.8195 2.09066 43.9986 2.77506 42.5522 3.97702C43.0515 4.22717 43.5321 4.49112 43.9951 4.76716C45.2345 3.99524 46.6898 3.5346 48.255 3.49616C48.3262 3.49441 48.3962 3.49357 48.4669 3.49357C51.6978 3.49357 54.5221 5.31344 55.9458 8.00151Z" fill="#BFBBCA"/>
<path d="M56.0942 8.33074C55.157 4.65793 51.8285 1.96643 47.8987 1.96643C47.8283 1.96643 47.7577 1.96727 47.6868 1.96902C45.6947 2.01795 43.8808 2.75062 42.463 3.93892C42.4871 3.95078 42.5103 3.96243 42.5341 3.97438C43.9805 2.77242 45.8014 2.08802 47.6889 2.0417C47.7586 2.03998 47.8283 2.03911 47.8975 2.03911C51.6611 2.03911 54.8795 4.54166 55.9277 7.99887C55.9856 8.10785 56.0411 8.21886 56.0942 8.33074Z" fill="#9999C7"/>
<path d="M42.9967 5.48643C43.3097 5.2216 43.6419 4.97921 43.9915 4.76146C43.5285 4.48542 43.0479 4.22146 42.5486 3.97131C42.4867 4.02263 42.4257 4.07494 42.3652 4.12815C42.1432 4.32384 41.9331 4.52965 41.7349 4.74478C42.1624 4.97941 42.5829 5.2266 42.9967 5.48643Z" fill="#B4B1C9"/>
<path d="M41.8186 4.78024C42.0168 4.5651 42.2269 4.3593 42.449 4.16361C42.5094 4.1104 42.5704 4.05809 42.6323 4.00677C42.6085 3.99482 42.5852 3.98317 42.5611 3.97131C42.5074 4.01656 42.4536 4.06256 42.401 4.10915C42.2923 4.2047 42.1865 4.30292 42.0831 4.40385C41.9735 4.51628 41.8669 4.63168 41.7634 4.75004C41.7817 4.75998 41.8003 4.77027 41.8186 4.78024Z" fill="#9999C7"/>
<path d="M47.9405 2.5968C52.1888 2.5968 55.6958 5.99868 55.8007 10.269C55.9073 14.6045 52.4666 18.2184 48.1308 18.3251C43.8 18.4341 40.1814 14.9907 40.075 10.6552C40.0233 8.55503 40.7928 6.5603 42.2415 5.03868C43.6898 3.51714 45.6444 2.6508 47.7449 2.59922C47.81 2.59759 47.8757 2.5968 47.9405 2.5968ZM47.932 19.525C48.0082 19.525 48.084 19.5241 48.1605 19.5224C53.1562 19.3994 57.1206 15.2354 56.998 10.2396C56.8753 5.24372 52.7168 1.27732 47.7152 1.4019C45.2951 1.46136 43.0432 2.45958 41.374 4.21284C39.7048 5.96619 38.8182 8.26442 38.8774 10.6846C38.937 13.1047 39.9355 15.3566 41.6887 17.0261C43.3867 18.6424 45.5962 19.525 47.932 19.525Z" fill="#5E3721"/>
<path d="M18.8853 9.75971C18.8821 14.811 14.7843 18.9032 9.73273 18.8997C7.43232 18.898 5.32836 18.0457 3.72133 16.6415C1.80045 14.9656 0.589212 12.4981 0.590956 9.74721C0.594443 4.69404 4.69223 0.601891 9.74522 0.605349C11.9811 0.606889 14.0281 1.40951 15.6168 2.74357C17.6168 4.4232 18.8873 6.94406 18.8853 9.75971Z" fill="#60547B"/>
<path d="M18.8884 9.75707C18.8849 14.758 14.8153 18.8244 9.81491 18.8244H9.80851C7.61476 18.823 5.49656 18.0273 3.84477 16.5839C1.86955 14.8606 0.737647 12.3675 0.739391 9.74457C0.742878 4.74257 4.81364 0.675331 9.81491 0.675331H9.82101C11.95 0.676813 14.0185 1.43014 15.6458 2.79661C17.7083 4.52851 18.8901 7.06551 18.8884 9.75707ZM9.81491 18.9697C14.8958 18.9697 19.0302 14.8385 19.0337 9.75707C19.0357 7.0225 17.8347 4.44494 15.7394 2.68537C14.0859 1.29699 11.9843 0.531511 9.82101 0.530029H9.81491C4.73314 0.530029 0.597577 4.66202 0.594089 9.74457C0.592055 12.4097 1.74226 14.9426 3.74916 16.6935C5.42739 18.1598 7.5793 18.9683 9.80851 18.9697H9.81491Z" fill="#5E3721"/>
<path d="M4.98292 16.7992C5.46968 15.6533 6.00584 14.5778 6.56758 13.597C8.95023 9.43676 11.8092 6.43969 15.2566 4.50212C15.2095 4.46109 15.1621 4.4204 15.1145 4.38033C14.7893 4.10731 14.4449 3.85658 14.0837 3.63037C8.80173 6.93757 5.75854 11.7035 4.00766 16.0233C4.31628 16.3072 4.64205 16.5661 4.98292 16.7992Z" fill="#433B78"/>
<path d="M2.62904 5.09533C4.29361 3.35537 6.63791 2.27184 9.23619 2.27184H9.24287C11.0211 2.27306 12.6798 2.78106 14.0834 3.66013C14.4136 3.45357 14.753 3.25212 15.1008 3.05742C13.5973 1.86092 11.747 1.21096 9.79647 1.20959H9.79065C6.79657 1.20959 4.15645 2.75746 2.62904 5.09533Z" fill="#BFBBCA"/>
<path d="M15.2585 4.53745C15.5552 4.37076 15.856 4.21192 16.1614 4.06083C16.0582 3.94584 15.9516 3.83323 15.8414 3.72309C15.6063 3.4875 15.3596 3.26722 15.103 3.06299C14.7551 3.25769 14.4157 3.45914 14.0856 3.6657C14.4468 3.8919 14.7912 4.14263 15.1164 4.41566C15.164 4.45573 15.2114 4.49642 15.2585 4.53745Z" fill="#B4B1C9"/>
<path d="M9.74576 1.1976H9.75158C12.0351 1.19923 14.1812 2.08984 15.7944 3.70553C17.4081 5.32116 18.2956 7.46854 18.2941 9.75181C18.2927 12.0351 17.402 14.1812 15.7862 15.7946C14.1719 17.4066 12.027 18.2941 9.74605 18.2941H9.73995C7.45668 18.2926 5.31059 17.4019 3.69716 15.7865C2.08374 14.1707 1.19624 12.0234 1.19769 9.74018C1.20089 5.02856 5.03509 1.1976 9.74576 1.1976ZM9.74605 19.4919C12.3469 19.4919 14.7921 18.4801 16.6325 16.642C18.4746 14.8025 19.49 12.3559 19.4917 9.75268C19.4934 7.14946 18.4816 4.70122 16.642 2.85918C14.8025 1.01717 12.3557 0.00177268 9.75244 0H9.74576C4.37455 0 0.00360741 4.36732 0.000120179 9.73931C-0.00191404 12.3425 1.01026 14.7906 2.84977 16.6327C4.68928 18.4745 7.13586 19.4902 9.73908 19.4919H9.74605Z" fill="#5E3721"/>
<path d="M53.1497 24.9768C53.1497 24.9768 64.0062 46.4006 31.3522 46.8348C-1.74248 47.275 0.598902 25.0753 7.00087 13.8976C13.0602 3.31853 21.4961 1.63771 32.0502 2.44404C43.1254 3.29025 53.556 12.7087 53.1497 24.9768Z" fill="white"/>
<path d="M27.8241 2.33416C29.2172 2.33416 30.6545 2.39972 32.1375 2.51305C42.5838 3.31119 53.5953 12.1244 53.1698 24.9707L53.1692 24.9893L53.1777 25.0062C53.216 25.0817 56.9631 32.6354 53.2527 38.7653C50.1333 43.9183 42.7959 46.6078 31.4441 46.7587C31.1157 46.763 30.7882 46.7653 30.4656 46.7653C17.8253 46.7656 9.45392 43.4249 5.57148 36.8288C1.25865 29.5006 3.72993 19.9137 7.15671 13.9304C12.3771 4.81593 19.2536 2.33416 27.8241 2.33416ZM30.4924 46.9103C30.8077 46.9103 31.1256 46.9083 31.4458 46.904C42.8517 46.7523 50.2307 44.0389 53.3773 38.8394C57.0436 32.7818 53.5151 25.3648 53.3157 24.9574C53.5017 19.1901 51.2768 13.6561 47.05 9.37264C43.0711 5.34073 37.6397 2.78776 32.1485 2.36816C26.0619 1.90322 21.6697 2.35403 17.9064 3.83018C13.4523 5.57728 9.89477 8.8574 7.03059 13.8581C3.58463 19.8753 1.10172 29.5207 5.44652 36.9026C7.30143 40.0542 10.2441 42.5022 14.1928 44.179C18.4635 45.9926 23.9434 46.9103 30.4924 46.9103Z" fill="#5E3721"/>
<path d="M41.0537 30.3466C41.0537 30.3466 40.0717 26.2868 37.8469 23.3727C36.642 21.795 36.5537 19.5937 37.7437 18.0047C38.5004 16.9942 39.7672 16.2253 41.8833 16.3509C47.5266 16.6853 51.0928 24.035 50.9461 28.4234C50.799 32.8117 48.0813 34.7152 46.3037 34.7669C44.5261 34.8184 41.7735 34.127 41.0537 30.3466Z" fill="#60547B"/>
<path d="M23.0453 30.7936C23.0453 30.7936 24.4928 26.5133 27.2457 23.5648C28.7365 21.9683 29.0207 19.6112 27.8121 17.8077C27.0434 16.6607 25.6796 15.7316 23.2828 15.6939C16.8912 15.5933 12.2538 23.1969 12.0516 27.9221C11.8496 32.6473 14.7547 34.9134 16.7547 35.1137C18.7549 35.3139 21.9169 34.7957 23.0453 30.7936Z" fill="#60547B"/>
<path d="M30.4458 46.2402C30.773 46.2402 31.1028 46.2378 31.4359 46.2335C42.5892 46.085 49.7761 43.4829 52.7975 38.4997C53.2467 37.7584 53.5818 36.9941 53.8245 36.2246C51.2605 40.0602 45.4769 43.26 33.3937 43.4207C33.0862 43.4248 32.7848 43.4268 32.4838 43.4268C2.14023 43.4254 4.36712 22.7371 10.3625 12.2693C12.0695 9.28919 13.9756 7.05562 16.0752 5.40857C12.876 7.14599 10.0562 9.92532 7.61199 14.1928C4.25524 20.0537 1.82523 29.4291 6.02385 36.5625C9.80285 42.9834 18.0156 46.2402 30.4458 46.2402Z" fill="#B2B2D4"/>
<path d="M37.3292 34.2572C40.5798 32.8995 40.0704 30.8368 39.432 29.6776C39.3512 29.5309 39.2085 29.4608 39.0664 29.4608C38.8946 29.4608 38.7238 29.5634 38.6651 29.7569C38.4454 30.4811 37.9188 31.3785 36.6567 31.5218C36.582 31.5302 36.5111 31.5343 36.4428 31.5343C34.5243 31.5343 35.0011 28.3071 35.0011 28.3071L33.105 28.2772L31.2175 28.2476C31.2175 28.2476 32.0791 31.1475 29.7633 31.3422C29.6959 31.348 29.6299 31.3506 29.5657 31.3506C28.1842 31.3506 27.5109 30.0815 27.2066 29.1784C27.1421 28.9868 26.9718 28.8878 26.7995 28.8878C26.6521 28.8878 26.5033 28.9601 26.4176 29.1101C25.7611 30.2614 25.0829 32.3698 27.7826 33.7216L33.0468 31.9617L37.3292 34.2572Z" fill="#B2B2D4"/>
<path d="M29.6073 25.5266C30.91 24.8074 33.1669 24.8853 33.1669 24.8853C33.1669 24.8853 35.4248 24.8786 36.7044 25.6382C37.1301 25.8911 37.2963 26.429 37.1071 26.8867C36.7105 27.8462 35.662 29.4515 33.0957 29.4111C30.5291 29.3707 29.532 27.7335 29.1656 26.762C28.9906 26.2985 29.1737 25.7661 29.6073 25.5266Z" fill="#5E3721"/>
<path d="M32.5718 28.8768C32.5613 28.9614 32.5575 29.0131 32.552 29.0793L32.5413 29.2642C32.536 29.3865 32.5334 29.508 32.5372 29.6294C32.5436 29.8724 32.5622 30.1156 32.5982 30.3597C32.6715 30.8459 32.8095 31.3405 33.0542 31.809C33.1783 32.0423 33.3305 32.2672 33.509 32.4742C33.6854 32.6837 33.903 32.8609 34.1303 33.0147C34.3596 33.1693 34.6101 33.2791 34.8614 33.3704C35.1145 33.4506 35.3711 33.511 35.624 33.534C36.1363 33.5843 36.6018 33.559 37.0921 33.4776C37.3362 33.4337 37.5809 33.3686 37.8215 33.2716C38.0618 33.1774 38.299 33.053 38.5137 32.8888C38.9456 32.5663 39.2815 32.0865 39.3954 31.5797C39.5076 31.0717 39.4561 30.5687 39.2234 30.127C39.1859 30.0558 39.0975 30.0284 39.0261 30.0659C38.9874 30.0863 38.9618 30.1211 38.9522 30.1604L38.9473 30.181C38.7453 31.0217 38.5021 31.7136 37.9316 32.0545C37.7919 32.1423 37.6326 32.2077 37.4626 32.2559C37.3801 32.2838 37.2888 32.2981 37.2017 32.3181C37.1101 32.3306 37.0206 32.3475 36.9267 32.3559C36.5562 32.3919 36.1441 32.382 35.7948 32.3193C35.6158 32.2893 35.4505 32.237 35.2912 32.1804C35.1387 32.1126 34.9907 32.0409 34.8643 31.9435C34.6083 31.754 34.4061 31.5012 34.2541 31.1949C34.1091 30.8854 34.0033 30.5338 33.9533 30.1598C33.926 29.9735 33.9083 29.7829 33.9019 29.5914C33.8992 29.4955 33.8963 29.3996 33.8981 29.3046L33.9019 29.1636L33.9091 29.0413L33.9117 29.0003C33.9341 28.6292 33.6516 28.3101 33.2805 28.2877C32.9243 28.2662 32.6159 28.5278 32.5718 28.8768Z" fill="#5E3721"/>
<path d="M32.6466 28.835L32.651 28.9667L32.6507 29.1184C32.6486 29.2204 32.6428 29.3232 32.6359 29.4255C32.6219 29.631 32.5946 29.8344 32.5559 30.0323C32.4824 30.4299 32.3508 30.8021 32.1671 31.1203C32.0762 31.281 31.9669 31.4237 31.8443 31.5501C31.7856 31.6167 31.7158 31.6699 31.6516 31.7306C31.5795 31.7809 31.5133 31.8396 31.4345 31.882C31.1343 32.0741 30.7664 32.1807 30.3709 32.2345C29.9803 32.2851 29.5343 32.2804 29.1283 32.2304C29.0248 32.2203 28.9281 32.197 28.8266 32.1828C28.7316 32.1575 28.6296 32.1418 28.5392 32.1092C28.3501 32.0552 28.1766 31.9779 28.0193 31.8829C27.7 31.6951 27.4771 31.415 27.3117 31.0712C27.1452 30.728 27.0397 30.3064 26.9627 29.8568L26.9598 29.8391C26.9462 29.7594 26.8709 29.7063 26.7913 29.7196C26.7471 29.7275 26.7102 29.7551 26.6893 29.7911C26.5541 30.0277 26.4847 30.2738 26.4492 30.5371C26.4173 30.7989 26.4266 31.0732 26.4928 31.3435C26.6172 31.8884 26.9877 32.3917 27.4454 32.7227C27.6738 32.8907 27.9214 33.0244 28.1737 33.1223C28.2998 33.1784 28.4274 33.2118 28.5549 33.256C28.6822 33.2876 28.8112 33.3275 28.9391 33.3484C29.4546 33.4454 29.9484 33.4858 30.4877 33.4553C31.0192 33.4228 31.5769 33.2897 32.084 33.0066C32.213 32.9412 32.3307 32.8549 32.4516 32.7741C32.5652 32.6835 32.6815 32.5946 32.7823 32.4899C32.9907 32.2877 33.1723 32.0604 33.3194 31.8192C33.6213 31.3383 33.7962 30.8132 33.9003 30.2953C33.9511 30.0349 33.9822 29.7745 33.9985 29.5139C34.0075 29.3834 34.009 29.2529 34.0081 29.1216C34.0075 29.0559 34.0055 28.9896 34.0029 28.9228C33.9991 28.8516 33.9967 28.7961 33.9877 28.7048C33.9517 28.3349 33.6227 28.0644 33.2528 28.1001C32.8977 28.1347 32.6341 28.4392 32.6452 28.7906L32.6466 28.835Z" fill="#5E3721"/>
<path d="M33.2537 29.0803C33.2537 29.0803 33.2336 29.2163 33.2287 29.4363C33.2394 29.3212 33.2473 29.203 33.2537 29.0803Z" fill="#222A66"/>
<path d="M33.3749 29.4535C33.3856 29.3375 33.3938 29.2184 33.4001 29.0946L33.2557 29.0803C33.2548 29.0858 33.2348 29.2233 33.2299 29.4453L33.3749 29.4535Z" fill="#5E3721"/>
<path d="M27.8456 34.649C28.081 36.3566 29.0213 38.4437 32.2034 38.4937C33.4071 38.5126 34.3292 38.2441 35.0351 37.8151C37.5005 36.3162 37.3364 32.8639 37.3364 32.8639C33.4402 33.4494 33.1921 30.4704 33.2237 29.4199C32.753 34.6034 27.861 32.4439 27.861 32.4439C27.861 32.4439 27.6802 33.4532 27.8456 34.649Z" fill="#5E3721"/>
<path d="M27.8813 34.6676C28.1167 36.3752 29.0571 38.4623 32.2392 38.5123C33.4428 38.5312 34.3649 38.2627 35.0708 37.8337C35.0708 37.8337 33.442 32.4913 27.8813 34.6676Z" fill="#FF4379"/>
<path d="M36.8757 33.4601C36.8141 34.2679 36.5599 35.7744 35.5491 36.8145C34.7764 37.6096 33.6794 38.0016 32.2909 37.9798C30.964 37.9589 29.9623 37.55 29.3128 36.7639C28.4003 35.6599 28.3445 34.0427 28.3942 33.1657C29.2617 33.4173 30.8141 33.685 32.0689 32.9102C32.5501 32.613 32.936 32.198 33.2246 31.6679C33.3754 31.9707 33.5748 32.2634 33.8378 32.5234C34.5541 33.2316 35.575 33.5449 36.8757 33.4601ZM32.4022 39.0286C34.0357 39.0286 35.3486 38.5279 36.3065 37.539C38.0565 35.7317 37.9455 32.966 37.9399 32.8492C37.933 32.701 37.8635 32.563 37.749 32.4691C37.6339 32.375 37.4854 32.334 37.3387 32.3561C36.0865 32.5441 35.1568 32.3511 34.578 31.7818C33.8814 31.0963 33.8137 29.9999 33.827 29.4625C33.8378 29.3443 33.8459 29.2234 33.852 29.0999C33.8657 28.8197 33.6567 28.5785 33.3778 28.5524C33.0988 28.5262 32.8483 28.7244 32.8096 29.0022C32.8064 29.0246 32.7864 29.1769 32.7794 29.4125C32.6574 30.7008 32.234 31.5767 31.5185 32.0184C30.1942 32.8361 28.1728 31.9826 28.153 31.9736C28.0057 31.9088 27.8371 31.9149 27.695 31.9905C27.5532 32.066 27.4538 32.2026 27.4256 32.361C27.403 32.4871 26.8921 35.4745 28.5012 37.4271C29.355 38.4631 30.6243 39.0016 32.2746 39.0277C32.3174 39.0283 32.3598 39.0286 32.4022 39.0286Z" fill="#5E3721"/>
<path d="M31.9049 25.7924C31.8933 26.031 32.7956 26.2685 33.9203 26.3234C35.0449 26.378 35.9658 26.2292 35.9774 25.9906C35.9891 25.7523 35.0867 25.5146 33.9621 25.46C32.8378 25.4051 31.9165 25.5541 31.9049 25.7924Z" fill="white"/>
<path d="M33.4148 25.5184C33.5619 25.5184 33.7188 25.5219 33.8859 25.53C35.175 25.5928 35.8381 25.8596 35.8323 25.9848C35.8259 26.1101 35.1392 26.3115 33.851 26.2484C33.3122 26.2223 32.8083 26.1534 32.4323 26.0543C31.9946 25.9389 31.9031 25.827 31.9048 25.7939C31.9101 25.6846 32.4302 25.5184 33.4148 25.5184ZM34.2857 26.4039C35.0242 26.4039 35.9614 26.3196 35.9773 25.9918C35.9965 25.5928 34.6223 25.4205 33.8931 25.385C33.164 25.3493 31.7793 25.3879 31.7598 25.7867C31.752 25.9465 31.9598 26.0802 32.3954 26.1947C32.7807 26.2964 33.2954 26.367 33.844 26.3934C33.9739 26.3998 34.1253 26.4039 34.2857 26.4039Z" fill="#5E3721"/>
<path d="M52.6111 25.2791C52.648 25.3521 56.2622 32.6616 52.7018 38.5344C49.6804 43.5176 42.4935 46.1197 31.3402 46.2682C18.3552 46.444 9.80681 43.1872 5.92814 36.5972C1.72952 29.4638 4.15953 20.0884 7.51628 14.2275C13.4481 3.87074 21.5936 2.27803 32.0004 3.07321C42.2052 3.85295 52.9624 12.4537 52.5469 24.9891C52.5437 25.0897 52.5658 25.1893 52.6111 25.2791ZM30.3963 47.4722C30.7139 47.4722 31.0336 47.4698 31.3559 47.4658C42.9555 47.3115 50.4836 44.5127 53.7305 39.1476C57.3918 33.0978 54.2803 25.9966 53.7485 24.879C53.9014 19.0132 51.6248 13.3932 47.3277 9.03852C43.261 4.91772 37.7075 2.30814 32.0919 1.87901C25.9219 1.40759 21.4582 1.8693 17.6173 3.37587C13.0473 5.16845 9.40316 8.52329 6.47708 13.6321C2.96079 19.7716 0.436915 29.6289 4.89592 37.2049C6.80954 40.4559 9.83529 42.9771 13.8901 44.6989C18.2261 46.5402 23.7758 47.4722 30.3963 47.4722Z" fill="#5E3721"/>
<path d="M18.4537 21.9737C18.9184 22.1394 19.388 22.328 19.8251 22.5372C20.265 22.7479 20.6815 22.9847 21.0703 23.2474L21.2144 23.3474C21.2635 23.3796 21.3124 23.4116 21.3565 23.4491L21.6306 23.6633C21.721 23.7351 21.8023 23.8167 21.8889 23.892C21.9313 23.9306 21.9744 23.9687 22.018 24.0056L22.1359 24.13C22.4681 24.4462 22.7247 24.8234 22.9778 25.2038L23.8177 24.3218C23.7767 24.302 23.7499 24.2913 23.7212 24.2788C23.6918 24.266 23.6639 24.2549 23.6369 24.2445C23.582 24.2236 23.5265 24.2026 23.4724 24.1852C23.3637 24.1471 23.255 24.1163 23.1466 24.0852C22.9296 24.0248 22.7093 23.9826 22.489 23.9481C22.0479 23.8809 21.5995 23.8705 21.1575 23.9135C21.047 23.9222 20.9372 23.935 20.8279 23.9562C20.719 23.9757 20.6097 23.9911 20.5025 24.0172C20.288 24.0733 20.0753 24.1262 19.8721 24.2116C19.4589 24.3546 19.0823 24.5822 18.7373 24.8289C18.6391 24.8992 18.6164 25.0358 18.6865 25.134C18.7391 25.2078 18.8292 25.2389 18.9123 25.2203L18.9376 25.2145C19.1329 25.1709 19.3154 25.1073 19.5048 25.0704C19.6949 25.0349 19.8788 24.9922 20.0677 24.9742C20.2531 24.9437 20.4423 24.9437 20.6265 24.9291C20.7192 24.9262 20.8125 24.9312 20.9047 24.93C20.9965 24.9277 21.0886 24.9332 21.1807 24.9422C21.5475 24.9626 21.9104 25.021 22.2632 25.1105C22.3516 25.132 22.4385 25.1593 22.5256 25.1828L22.7828 25.2668C22.8668 25.2973 22.9514 25.3273 23.0313 25.3621C23.0725 25.3781 23.1106 25.3964 23.1493 25.4136C23.1693 25.422 23.1879 25.4304 23.2045 25.4389L23.246 25.4592L23.2707 25.4711C23.5831 25.6243 23.9606 25.4949 24.1138 25.1825C24.2114 24.9835 24.1919 24.7542 24.0859 24.5772L23.8624 24.2105L23.7488 24.028C23.709 23.9681 23.6619 23.9138 23.6186 23.8568L23.3518 23.5188C23.2571 23.4113 23.1528 23.3128 23.0531 23.2102L22.9017 23.0579L22.7369 22.9214C22.6256 22.8327 22.5181 22.7383 22.403 22.6558C22.1673 22.4977 21.934 22.3375 21.6811 22.214C21.1836 21.9542 20.6585 21.763 20.1218 21.6477C19.5824 21.5352 19.0451 21.4829 18.486 21.5401C18.3651 21.5526 18.277 21.6607 18.2895 21.7816C18.2982 21.8688 18.3569 21.9388 18.4342 21.9667L18.4537 21.9737Z" fill="#5E3721"/>
<path d="M43.0635 20.5987C44.6156 20.3476 46.1526 21.8671 46.4963 23.9929C46.8404 26.1187 45.8611 28.0454 44.309 28.2964C42.7569 28.5475 41.2199 27.028 40.8758 24.9022C40.532 22.7764 41.5114 20.8497 43.0635 20.5987Z" fill="#5E3721"/>
<path d="M43.3087 21.6054C43.9036 21.5092 44.4734 21.9747 44.5818 22.6454C44.6905 23.3161 44.2965 23.9377 43.7016 24.0339C43.107 24.1301 42.5369 23.6646 42.4285 22.9939C42.3198 22.3231 42.7141 21.7015 43.3087 21.6054Z" fill="white"/>
<path d="M44.8625 26.9613C44.9046 26.9613 44.9473 26.9578 44.99 26.9512C45.4224 26.8811 45.7162 26.4737 45.6465 26.0413C45.5834 25.6519 45.2466 25.3746 44.8642 25.3746C44.8223 25.3746 44.7796 25.3781 44.7366 25.3851C44.3042 25.4548 44.0104 25.8623 44.0804 26.2947C44.1435 26.6841 44.48 26.9613 44.8625 26.9613Z" fill="#4D4D9D"/>
</svg>
