<svg width="570" height="569" viewBox="0 0 570 569" fill="none" xmlns="http://www.w3.org/2000/svg">
<rect width="570" height="568.179" rx="16.3898" fill="#9292FF"/>
<mask id="mask0" style="mask-type:alpha" maskUnits="userSpaceOnUse" x="0" y="0" width="570" height="569">
<rect width="570" height="568.179" rx="16.3898" fill="#9292FF"/>
</mask>
<g mask="url(#mask0)">
<path fill-rule="evenodd" clip-rule="evenodd" d="M178.263 62.3847C193.048 97.6083 184.506 137.409 174.251 174.229C163.934 211.274 152.105 252.102 119.735 272.533C88.2113 292.43 48.161 277.723 10.9606 277.294C-24.0432 276.891 -59.5158 285.011 -91.2385 270.104C-126.387 253.586 -161.456 228.116 -173.029 190.832C-184.464 153.995 -159.526 117.678 -150.173 80.2499C-140.38 41.0627 -149.834 -9.92055 -117.043 -33.2064C-84.1261 -56.5815 -39.3882 -31.1659 0.660697 -26.8613C33.8146 -23.2978 66.9952 -25.2107 96.83 -10.2185C130.082 6.49101 163.793 27.9115 178.263 62.3847Z" fill="#9F9FE8"/>
<path fill-rule="evenodd" clip-rule="evenodd" d="M434.985 155.761C448.579 96.9428 496.306 53.8123 543.476 16.0847C590.933 -21.872 643.824 -63.2825 704.201 -59.5638C762.999 -55.9422 800.753 -0.0794603 848.047 34.8443C892.549 67.7058 945.527 90.074 972.42 138.498C1002.22 192.152 1023.64 257.209 1004.02 315.701C984.645 373.492 919.117 397.005 872.541 436.345C823.777 477.533 788.785 551.628 725.231 551.18C661.433 550.73 627.565 476.808 580.2 434.283C540.991 399.079 496.686 370.871 472.292 324.083C445.103 271.936 421.681 213.325 434.985 155.761Z" fill="#8989FF"/>
<path fill-rule="evenodd" clip-rule="evenodd" d="M-259.228 311.906C-273.436 248.569 -247.258 184.545 -219.105 126.016C-190.78 67.1324 -158.796 2.37065 -98.5458 -22.1351C-39.8701 -46.0005 22.7305 -9.43377 84.8296 2.39607C143.262 13.5274 205.025 10.5417 253.635 44.9551C307.496 83.085 358.548 136.168 366.769 201.992C374.892 267.027 322.328 320.326 295.501 380.14C267.413 442.765 267.996 530.871 206.188 560.027C144.143 589.294 76.9007 533.415 11.1949 514.25C-43.1988 498.385 -99.2733 491.672 -144.701 457.681C-195.332 419.796 -245.322 373.894 -259.228 311.906Z" fill="#8D8DF6"/>
<path fill-rule="evenodd" clip-rule="evenodd" d="M-487.657 292.102C-501.071 232.307 -476.357 171.862 -449.777 116.606C-423.036 61.0146 -392.841 -0.126099 -335.959 -23.2616C-280.564 -45.7926 -221.464 -11.2705 -162.837 -0.102111C-107.672 10.4068 -49.3627 7.58807 -3.46989 40.0773C47.379 76.0752 95.5764 126.19 103.338 188.334C111.007 249.732 61.3818 300.051 36.055 356.521C9.53769 415.644 10.0878 498.824 -48.2643 526.349C-106.84 553.98 -170.323 501.225 -232.355 483.132C-283.707 468.154 -336.646 461.817 -379.534 429.726C-427.334 393.96 -474.528 350.624 -487.657 292.102Z" fill="#8787E8"/>
</g>
</svg>
